<svg id="Layer_1" data-name="Layer 1" xmlns="http://www.w3.org/2000/svg" viewBox="0 0 207.66 175"><defs><style>.cls-1{fill:#acacac;}.cls-2{fill:#eabe52;}</style></defs><title>LuDela 2_color_logo_Light_Background</title><path class="cls-1" d="M293.94,339.9c0-2.32,0-5-1.13-6.75h6.9c-1.13,1.75-1.13,4.43-1.13,6.75V364h3.91c2.88,0,5.51-.41,8.09-2.94l-1,4.84c-1,.1-2.11.15-3.14,0.15H292.19c1.55-2,1.75-9.27,1.75-11.69V339.9Z" transform="translate(-292.19 -218.47)"/><path class="cls-1" d="M352.31,339.54c-1.13,1.46-1.13,3.63-1.13,5.51v15.7c0,1.88,0,4,1.13,5.43l-6.13.25,0.21-2.76c0-.12-0.1-0.17-0.26-0.17a4.13,4.13,0,0,0-.62.46,17,17,0,0,1-9.94,2.88c-6,0-9.94-2-10.1-7.1V345.06c0-1.88,0-4.05-1.13-5.51h6.9c-1.13,1.46-1.13,3.63-1.13,5.51v12.19c0.15,4.47,2.42,7.18,8.24,7.18,6,0,7.83-3,8-8,0.05-1.59.21-3.22,0.21-4.8v-6.55c0-1.88,0-4.05-1.13-5.51h6.9Z" transform="translate(-292.19 -218.47)"/><path class="cls-1" d="M368.18,339.9c0-2.32,0-5-1.13-6.75,5.2,0,10.41-.52,15.66-0.52,8.6,0,14.48,6.49,14.48,15.71,0,11.49-7.93,17.88-17.72,17.88-5.2,0-8.81-.21-12.42-0.21,1.13-1.75,1.13-4.43,1.13-6.75V339.9Zm4.64,20.35c0,3.71,1,3.91,6.59,3.91,9.17,0,12.42-6.49,12.42-14.94,0-8.91-4.84-14.53-14.06-14.53a29.52,29.52,0,0,0-4.89.41c0,0.77-.05,1.6-0.05,2.42v22.72Z" transform="translate(-292.19 -218.47)"/><path class="cls-1" d="M415.23,364.51h5.93c3.19,0,6.49-.63,8.91-2.38L429.14,366c-1.39.09-3.09,0.21-4.94,0.21H409.31c1.13-1.42,1.29-3.59,1.29-5.47V345c0-1.88,0-4-1.13-5.47h18l0.21,3.21c-1.8-1.25-4.58-1.54-7.62-1.54h-4.79v10c4,0,8.14,0,12.11-.29-1.8,2.38-7.62,2.38-10.82,2.38h-1.29v11.23Z" transform="translate(-292.19 -218.47)"/><path class="cls-1" d="M445.59,345c0-1.88,0-4-1.14-5.47h6.91c-1.13,1.42-1.13,3.59-1.13,5.47v19.5h3.92c2.88,0,5.51-.33,8.09-2.38l-1,3.93c-1,.08-2.11.12-3.14,0.12H443.83c1.55-1.63,1.75-7.52,1.75-9.48V345Z" transform="translate(-292.19 -218.47)"/><path class="cls-1" d="M494.29,366.18l-5.62-11.69H477.08c-2.22,3.63-4.53,7.72-4.53,10.1a8.41,8.41,0,0,0,.15,1.59h-6.44L467.4,365c2.93-3,13.55-20.92,13.55-24.34l0-1.13h6.08c3.3,8.31,6.59,17.37,11.75,25.09l1,1.54h-5.56Zm-10.1-22.29a1.36,1.36,0,0,0-.88-1,1.52,1.52,0,0,0-.87,1L478,352.82h9.84Z" transform="translate(-292.19 -218.47)"/><path class="cls-2" d="M328.63,381.29a7.93,7.93,0,0,0,3-2.3,3.57,3.57,0,0,0,.68-3.23,2,2,0,0,0-2.28-1.57c-1.3.08-3,1-4.39,1.14-0.23,0-.29.12-0.19,0.33a1.45,1.45,0,0,0,1.31.77,36.07,36.07,0,0,0-3.69,7.16c-0.44,1.24-.25,1.55,0,2a2.73,2.73,0,0,0,1,.89,2.45,2.45,0,0,0,1.62.1,6.6,6.6,0,0,0,3.38-1.8,2.24,2.24,0,0,0,.44-2.65A2.32,2.32,0,0,0,328.63,381.29Zm-1.24-3.15a3.5,3.5,0,0,0,.58-1.9c1.33-.42,3.25-1.31,3.64-0.31,0.48,1.31-1.89,3.93-5.72,4.81C326.44,379.76,327,378.86,327.39,378.14Zm1,5.43a6.38,6.38,0,0,1-3.73,2c-0.62.08-.83-0.16-0.62-0.83a18,18,0,0,1,1.3-3,2.17,2.17,0,0,0,1.2.14c0.27,0,.54-0.08.81-0.14C329.13,381.81,329.13,382.68,328.42,383.57Z" transform="translate(-292.19 -218.47)"/><path class="cls-2" d="M357.92,383.38c-0.62,1.43-1.61,2.71-2.42,2.67-0.58,0-.81-0.79-0.48-1.86a10.8,10.8,0,0,1,2.22-3.36,1.55,1.55,0,0,0-.29-2c-0.14-.19-0.31-0.1-0.54.06a5.17,5.17,0,0,1-2.11.91c0.48-1.26.68-2.44,0.08-2.42-0.81,0-2.71,2.61-1.22,3.23-1.06,2.46-3.19,5.51-5.32,5.42-1,0-1.47-1.3-.85-3.06,1.35,1.08,2.65.6,3.56-.58,0.77-1,1-2.13.64-2.59a3.54,3.54,0,0,0-1.14-1c-1-.56-2.94.52-4.16,2.92a4.57,4.57,0,0,0-.53,2.75c-0.63.93-1.36,1.63-2,1.6-0.79,0-1-1.22-.39-2.65,0.73-1.62,1.92-3.52,2.65-4.87,0.62,0,1.12,0,1.45,0s0.39-.12.25-0.35a1.38,1.38,0,0,0-1.2-.62,2.61,2.61,0,0,0,.25-2.2c-0.1-.23-0.27-0.27-0.46,0-0.31.41-.81,1.26-1.39,2.26-0.79,0-1.8.12-2.82,0.16a2.67,2.67,0,0,0,.29-2.24c-0.1-.25-0.27-0.25-0.46,0-0.31.45-.87,1.32-1.45,2.32-0.56,0-1.1,0-1.55,0-0.29,0-.44.12-0.25,0.37a1.74,1.74,0,0,0,1.26.6,44.56,44.56,0,0,0-2,4.06c-0.06.13-.08,0.26-0.12,0.39l0,0c-0.83,1.28-2.24,2.82-3.85,2.75-1-.06-1.49-1.28-0.87-3.05,1.35,1.1,2.65.6,3.6-.56a2.5,2.5,0,0,0,.62-2.63,3.59,3.59,0,0,0-1.14-1c-1-.56-2.94.44-4.2,2.94s-0.41,4.91,2.05,4.87a4.88,4.88,0,0,0,3.62-1.87,1.82,1.82,0,0,0,1.7,1.85,3.34,3.34,0,0,0,2.63-1.58,1.82,1.82,0,0,0,1.68,1.58,3.34,3.34,0,0,0,2.46-1.29,2.36,2.36,0,0,0,2.28,1.25c2.3,0,4.39-2.48,6-5.84a4.5,4.5,0,0,0,2.32-.73,11.51,11.51,0,0,0-2.4,3.66c-0.48,1.57.1,2.88,1.57,3a3.08,3.08,0,0,0,2.71-2,1.73,1.73,0,0,0,.1-1.26C358.14,383.19,358,383.23,357.92,383.38Zm-10.6-1.16c0.89-1.78,2.48-3,2.9-2.63,0.25,0.21-.15,1.22-0.77,2s-1.33,1.53-2.28.95C347.23,382.45,347.27,382.32,347.33,382.22Zm-14.37,0c0.91-1.84,2.51-3,2.92-2.67s-0.16,1.22-.77,2-1.35,1.57-2.3,1C332.84,382.49,332.9,382.38,333,382.26Zm8.72,0.95c-0.62,1.43-1.76,2.92-2.61,2.88s-1-1.24-.41-2.65c0.72-1.59,1.76-3.33,2.51-4.62,0.83,0,1.84-.12,2.8-0.17C343.07,380.31,342.13,382.16,341.68,383.21Z" transform="translate(-292.19 -218.47)"/><path class="cls-2" d="M367.69,374.6c-0.12-.25-0.29-0.27-0.46,0a72.65,72.65,0,0,0-5.3,9.9,1.36,1.36,0,0,0-.06,1.12,5.62,5.62,0,0,0,.5.83c0.21,0.31.41,0.31,0.87,0.19a22.14,22.14,0,0,1,4.22-.75c0.25,0,.25-0.13.19-0.29a1.47,1.47,0,0,0-1.7-.87,18.24,18.24,0,0,0-2.94.54c1.43-3.09,3.19-6.07,4.2-7.91C368,375.9,367.92,375.09,367.69,374.6Z" transform="translate(-292.19 -218.47)"/><path class="cls-2" d="M373.12,378.74a1.17,1.17,0,0,0,.14-1.29,0.73,0.73,0,0,0-1.12-.43,1.2,1.2,0,0,0-.1,1.43A0.7,0.7,0,0,0,373.12,378.74Z" transform="translate(-292.19 -218.47)"/><path class="cls-2" d="M392.3,383.3c-0.72,1.45-1.82,2.82-2.69,2.78s-1-1.24-.39-2.65c0.73-1.62,1.84-3.5,2.59-4.8a5.75,5.75,0,0,1,1.51-.08c0.29,0,.37-0.14.23-0.37a1.21,1.21,0,0,0-1.2-.58,2.64,2.64,0,0,0,.25-2.19c-0.1-.23-0.29-0.25-0.46,0a24.76,24.76,0,0,0-1.47,2.4,11,11,0,0,1-1.61.08c-0.29,0-.41.12-0.21,0.39a1.6,1.6,0,0,0,1.26.5c-0.83,1.53-1.64,3.15-2.05,4.12a4.88,4.88,0,0,0-.25.75c-0.62,1.16-1.57,2.35-2.31,2.38s-0.81-.87-0.33-2,1.37-2.42,1.8-3.27a1.36,1.36,0,0,0-.75-2,4.12,4.12,0,0,0-2.32,1.35c0.83-1.3,1.86-2.86,2.32-3.64a3.12,3.12,0,0,0,.54-2.75c-0.1-.23-0.29-0.25-0.46,0a70.6,70.6,0,0,0-6.16,10.42,9.53,9.53,0,0,1-2.87,2.19c0.81-1.88,2-4.22,2.61-5.38a2,2,0,0,0,0-2.13c-0.14-.17-0.33-0.15-0.48.12L378.8,380a1.13,1.13,0,0,0-1.14-1.28c-1,0-2.55.87-4.06,3.11a6.2,6.2,0,0,0-.74,1.5l-0.05.06c-0.58,1.33-1.64,2.61-2.51,2.65-0.62,0-.66-0.71-0.19-1.84,0.41-1,1.22-2.28,1.62-3.13a2,2,0,0,0,0-2.11c-0.15-.17-0.29-0.12-0.46.12a23.85,23.85,0,0,0-2.48,4.7c-0.54,1.58-.17,2.82,1.3,2.82a3.34,3.34,0,0,0,2.54-1.46,1.5,1.5,0,0,0,1.52,1.42,2.88,2.88,0,0,0,2-1c-0.19.44-.37,0.91-0.56,1.34-1.91.73-3.58,1.91-4.14,3.65a2.43,2.43,0,0,0,.39,2.4,0.86,0.86,0,0,0,1.12.41c1.57-.62,2.94-3.69,4-6.29a9.17,9.17,0,0,0,2.89-1.58,1.32,1.32,0,0,0,.3.92c0.12,0.13.25,0.1,0.33-.08a25.34,25.34,0,0,1,1.88-3.67c1.12-1.84,3.23-3.15,3.5-3s-1.37,2.19-2,4.06c-0.58,1.68-.17,2.86,1.45,2.86a3.37,3.37,0,0,0,2.52-1.51,1.77,1.77,0,0,0,1.66,1.49c1.55,0.06,2.82-1.64,3.07-2.2a1.62,1.62,0,0,0,.19-1.1C392.63,383,392.42,383.07,392.3,383.3Zm-20.11,9c-0.33-.46.52-3.11,3-4.58C374,390.67,372.44,392.68,372.19,392.31ZM374.4,386c-0.77,0-.56-1.72.48-3.38s2.48-2.92,3.07-2.88,0.39,1.24-.83,3.37C376.14,384.77,375.15,386,374.4,386Z" transform="translate(-292.19 -218.47)"/><path class="cls-2" d="M394.19,384.81a1.08,1.08,0,0,0-1,.91,0.8,0.8,0,0,0,.31.91,1.69,1.69,0,0,1-.52.31,0.12,0.12,0,0,0,0,.23,1.45,1.45,0,0,0,1.74-1A0.89,0.89,0,0,0,394.19,384.81Z" transform="translate(-292.19 -218.47)"/><path class="cls-2" d="M406.68,381.29a7.93,7.93,0,0,0,3-2.3,3.56,3.56,0,0,0,.68-3.23,2,2,0,0,0-2.28-1.57c-1.3.08-3,1-4.39,1.14-0.23,0-.29.12-0.19,0.33a1.44,1.44,0,0,0,1.31.77,36.13,36.13,0,0,0-3.69,7.16c-0.44,1.24-.25,1.55,0,2a2.73,2.73,0,0,0,1,.89,2.45,2.45,0,0,0,1.62.1,6.6,6.6,0,0,0,3.38-1.8,2.24,2.24,0,0,0,.45-2.65A2.32,2.32,0,0,0,406.68,381.29Zm-1.24-3.15a3.49,3.49,0,0,0,.58-1.9c1.33-.42,3.25-1.31,3.63-0.31,0.48,1.31-1.9,3.93-5.72,4.81C404.5,379.76,405.06,378.86,405.45,378.14Zm1,5.43a6.38,6.38,0,0,1-3.73,2c-0.62.08-.83-0.16-0.62-0.83a18.06,18.06,0,0,1,1.29-3,2.17,2.17,0,0,0,1.2.14c0.27,0,.54-0.08.81-0.14C407.19,381.81,407.19,382.68,406.47,383.57Z" transform="translate(-292.19 -218.47)"/><path class="cls-2" d="M436,383.38c-0.62,1.43-1.6,2.71-2.42,2.67-0.58,0-.81-0.79-0.48-1.86a10.82,10.82,0,0,1,2.22-3.36,1.55,1.55,0,0,0-.29-2c-0.13-.19-0.31-0.1-0.54.06a5.16,5.16,0,0,1-2.11.91c0.49-1.26.68-2.44,0.08-2.42-0.81,0-2.71,2.61-1.22,3.23-1.06,2.46-3.19,5.51-5.32,5.42-1,0-1.47-1.3-.85-3.06,1.35,1.08,2.65.6,3.56-.58,0.77-1,1-2.13.64-2.59a3.55,3.55,0,0,0-1.14-1c-1-.56-2.94.52-4.16,2.92a4.57,4.57,0,0,0-.53,2.75c-0.63.93-1.36,1.63-2,1.6-0.79,0-1-1.22-.39-2.65,0.73-1.62,1.91-3.52,2.65-4.87,0.62,0,1.12,0,1.45,0s0.39-.12.25-0.35a1.39,1.39,0,0,0-1.2-.62,2.61,2.61,0,0,0,.25-2.2c-0.1-.23-0.27-0.27-0.46,0-0.31.41-.81,1.26-1.39,2.26-0.79,0-1.8.12-2.82,0.16a2.67,2.67,0,0,0,.29-2.24c-0.1-.25-0.27-0.25-0.46,0-0.31.45-.87,1.32-1.45,2.32-0.56,0-1.1,0-1.55,0-0.29,0-.45.12-0.25,0.37a1.74,1.74,0,0,0,1.26.6,44.3,44.3,0,0,0-2,4.06c-0.06.13-.08,0.26-0.12,0.39l0,0c-0.83,1.28-2.24,2.82-3.85,2.75-1-.06-1.49-1.28-0.87-3.05,1.35,1.1,2.65.6,3.6-.56a2.5,2.5,0,0,0,.62-2.63,3.6,3.6,0,0,0-1.14-1c-1-.56-2.94.44-4.2,2.94s-0.41,4.91,2,4.87a4.88,4.88,0,0,0,3.62-1.87,1.82,1.82,0,0,0,1.7,1.85,3.33,3.33,0,0,0,2.63-1.58,1.82,1.82,0,0,0,1.68,1.58,3.34,3.34,0,0,0,2.46-1.29,2.37,2.37,0,0,0,2.28,1.25c2.3,0,4.39-2.48,6-5.84a4.5,4.5,0,0,0,2.32-.73,11.54,11.54,0,0,0-2.4,3.66c-0.48,1.57.1,2.88,1.57,3a3.08,3.08,0,0,0,2.71-2,1.73,1.73,0,0,0,.1-1.26C436.19,383.19,436.06,383.23,436,383.38Zm-10.6-1.16c0.89-1.78,2.48-3,2.9-2.63,0.25,0.21-.16,1.22-0.77,2s-1.33,1.53-2.28.95C425.28,382.45,425.32,382.32,425.38,382.22Zm-14.37,0c0.91-1.84,2.51-3,2.92-2.67s-0.16,1.22-.77,2-1.35,1.57-2.3,1C410.9,382.49,411,382.38,411,382.26Zm8.72,0.95c-0.62,1.43-1.76,2.92-2.61,2.88s-1-1.24-.41-2.65c0.71-1.59,1.76-3.33,2.51-4.62,0.83,0,1.84-.12,2.8-0.17C421.13,380.31,420.18,382.16,419.74,383.21Z" transform="translate(-292.19 -218.47)"/><path class="cls-2" d="M445.74,374.6c-0.12-.25-0.29-0.27-0.46,0a72.72,72.72,0,0,0-5.3,9.9,1.35,1.35,0,0,0-.06,1.12,5.58,5.58,0,0,0,.5.83c0.21,0.31.41,0.31,0.87,0.19a22.13,22.13,0,0,1,4.22-.75c0.25,0,.25-0.13.19-0.29a1.47,1.47,0,0,0-1.7-.87,18.22,18.22,0,0,0-2.94.54c1.43-3.09,3.19-6.07,4.2-7.91C446.05,375.9,446,375.09,445.74,374.6Z" transform="translate(-292.19 -218.47)"/><path class="cls-2" d="M451.17,378.74a1.17,1.17,0,0,0,.14-1.29,0.73,0.73,0,0,0-1.12-.43,1.2,1.2,0,0,0-.1,1.43A0.7,0.7,0,0,0,451.17,378.74Z" transform="translate(-292.19 -218.47)"/><path class="cls-2" d="M457.42,378.82c0-.25-0.16-0.29-0.37-0.08a51.35,51.35,0,0,0-5.26,7,36.73,36.73,0,0,1,1-4.68c0.27-1.18.17-1.9-.46-2.44-0.15-.14-0.31-0.06-0.39.16a32.06,32.06,0,0,0-1.07,4.59h0c-0.58,1.33-1.64,2.61-2.51,2.65-0.62,0-.66-0.71-0.19-1.84,0.41-1,1.22-2.28,1.62-3.13a2,2,0,0,0,0-2.11c-0.16-.17-0.29-0.12-0.46.12a23.77,23.77,0,0,0-2.48,4.7c-0.54,1.58-.17,2.82,1.3,2.82a3.34,3.34,0,0,0,2.54-1.46,1.47,1.47,0,0,0,1,1.55c0.19,0.1.29,0,.39-0.19a55,55,0,0,1,4.58-6A2.47,2.47,0,0,0,457.42,378.82Z" transform="translate(-292.19 -218.47)"/><path class="cls-2" d="M468.89,383.23a0.19,0.19,0,0,0-.37,0,4.94,4.94,0,0,1-2.59,2.69,2.4,2.4,0,0,0,.87-2c0.06-1.33-.31-2.84-0.17-4.62,0.08-.13.13-0.25,0.21-0.37,0.25-.44.35-0.66,0.16-0.85a0.87,0.87,0,0,0-1,.29,2.09,2.09,0,0,0-.7,1.49,37.82,37.82,0,0,1-2.22,3.33c0-.15,0-0.31,0-0.46,0-.31-0.17-0.39-0.41-0.19a2,2,0,0,0-.54,1.69,4.26,4.26,0,0,1-3.21,1.88c-1-.06-1.49-1.28-0.87-3.05,1.35,1.1,2.65.6,3.6-.56a2.5,2.5,0,0,0,.62-2.63,3.59,3.59,0,0,0-1.14-1c-1-.56-2.94.44-4.2,2.94s-0.41,4.91,2.05,4.87a4.86,4.86,0,0,0,3.38-1.59l0.06,0.14a2.86,2.86,0,0,0,2.86,1.45,4.07,4.07,0,0,0,3.42-2.13A1.75,1.75,0,0,0,468.89,383.23Zm-10.6-1c0.91-1.84,2.51-3,2.92-2.67s-0.15,1.22-.77,2-1.35,1.57-2.3,1C458.17,382.49,458.23,382.38,458.29,382.26Zm6.4,3.65c-0.64.19-1.2-.6-1.49-1.72a34,34,0,0,0,2-3.13C465.29,382.61,465.58,385.64,464.69,385.91Z" transform="translate(-292.19 -218.47)"/><path class="cls-2" d="M378.94,239.47c1.11,0.93,2.11,1.77,2.27,3.15,2.21-2.68,3.66-5.6,3-9.22a18,18,0,0,0-2.74-6.11c-0.52-.83-1.09-1.63-1.55-2.5-1.06-2-2-4-1.21-6.33a14.81,14.81,0,0,0-4.83,11.16A11.61,11.61,0,0,0,378.94,239.47Z" transform="translate(-292.19 -218.47)"/><path class="cls-2" d="M407.88,243.08c3.23-1.26,5.92-3.1,7.08-6.61a17.91,17.91,0,0,0,.58-6.67c-0.05-1-.15-2-0.13-2.93,0-2.22.17-4.43,2-6.12a14.81,14.81,0,0,0-9.66,7.39,11.61,11.61,0,0,0-.34,11.08C408,240.57,408.41,241.8,407.88,243.08Z" transform="translate(-292.19 -218.47)"/><path class="cls-2" d="M438.92,252.23a18,18,0,0,0,3.51-5.7c0.39-.9.74-1.82,1.2-2.68,1-2,2.14-3.88,4.56-4.56a14.8,14.8,0,0,0-12,2.27,11.6,11.6,0,0,0-5.27,9.75c-0.14,1.44-.28,2.74-1.33,3.65C433.08,255.29,436.31,254.85,438.92,252.23Z" transform="translate(-292.19 -218.47)"/><path class="cls-2" d="M443.56,276.23c2.91,1.9,6,3,9.49,1.93a17.94,17.94,0,0,0,5.77-3.39c0.76-.61,1.5-1.26,2.31-1.81,1.83-1.26,3.71-2.43,6.16-1.9a14.81,14.81,0,0,0-11.63-3.58,11.6,11.6,0,0,0-9.22,6.15C445.65,274.83,444.92,275.91,443.56,276.23Z" transform="translate(-292.19 -218.47)"/><path class="cls-2" d="M461,298.39a11.61,11.61,0,0,0-11,1c-1.27.68-2.44,1.28-3.78,0.91,1.65,3.06,3.8,5.5,7.42,6.22a17.88,17.88,0,0,0,6.69-.23c1-.17,1.92-0.39,2.9-0.49,2.21-.24,4.42-0.37,6.32,1.27A14.82,14.82,0,0,0,461,298.39Z" transform="translate(-292.19 -218.47)"/><path class="cls-2" d="M337.95,301.74c1.06-1,2-1.86,3.42-1.85-2.38-2.53-5.09-4.34-8.77-4.1a17.82,17.82,0,0,0-6.4,1.94c-0.89.41-1.76,0.87-2.68,1.22-2.07.79-4.17,1.49-6.44,0.4a14.82,14.82,0,0,0,10.46,6.21A11.6,11.6,0,0,0,337.95,301.74Z" transform="translate(-292.19 -218.47)"/><path class="cls-2" d="M329.7,273.56a11.59,11.59,0,0,0,11,1.38c1.39-.39,2.66-0.73,3.89-0.08-1-3.34-2.54-6.19-5.92-7.67a17.86,17.86,0,0,0-6.58-1.21c-1,0-2,0-2.94-.14-2.21-.24-4.39-0.59-5.9-2.6A14.82,14.82,0,0,0,329.7,273.56Z" transform="translate(-292.19 -218.47)"/><path class="cls-2" d="M355.38,252.68c1.41,0.29,2.69.57,3.49,1.71,0.68-3.4.58-6.66-1.74-9.53a17.92,17.92,0,0,0-5.3-4.09c-0.85-.48-1.73-0.93-2.54-1.47-1.85-1.23-3.64-2.54-4.05-5a14.82,14.82,0,0,0,1,12.12A11.59,11.59,0,0,0,355.38,252.68Z" transform="translate(-292.19 -218.47)"/><path class="cls-2" d="M438.44,302.75a20.24,20.24,0,0,1,3.16,1.31,25.17,25.17,0,0,1,10.73,10.77c-6.64-2.3-14.44-5.39-23.75-7.17A32.31,32.31,0,0,0,431.14,294a37.48,37.48,0,1,0-72.3,13.87,127.07,127.07,0,0,0-24,7.48,28.14,28.14,0,0,1,9.92-10.92,19.21,19.21,0,0,1,4.07-2,45.72,45.72,0,0,1-.75-6.71,43.12,43.12,0,0,1-5.3-3c-1.33-.85-2.63-1.77-4-2.52-3.16-1.72-6.37-3.28-10.23-2a23.92,23.92,0,0,1,18.08-7.71,20.5,20.5,0,0,1,3.35.29,45.23,45.23,0,0,1,2.44-6.35,43.68,43.68,0,0,1-3.27-5c-0.79-1.37-1.51-2.79-2.39-4.1-2-3-4.13-5.86-8.13-6.52a23.91,23.91,0,0,1,19.6,1.55,20.29,20.29,0,0,1,2.78,1.77,45.87,45.87,0,0,1,5.15-4.55,44.07,44.07,0,0,1-.55-5.88c-0.06-1.58,0-3.17-.22-4.74-0.39-3.57-.94-7.11-4.18-9.55a23.91,23.91,0,0,1,16.65,10.45,20.35,20.35,0,0,1,1.59,2.74,45.19,45.19,0,0,1,7.69-1.8,44.68,44.68,0,0,1,2.3-5.29c0.71-1.41,1.49-2.8,2.09-4.26,1.38-3.32,2.59-6.68.93-10.38A23.92,23.92,0,0,1,402,246.06a20.43,20.43,0,0,1,.08,3.07,45.19,45.19,0,0,1,6.81,1.82,45.33,45.33,0,0,1,4.4-3.54c1.28-.93,2.62-1.79,3.83-2.81,2.76-2.3,5.39-4.72,5.63-8.77a23.92,23.92,0,0,1,.52,19.66,20.06,20.06,0,0,1-1.31,2.69,46,46,0,0,1,5.21,4.81,45.79,45.79,0,0,1,5.49-1.08c1.57-.23,3.15-0.38,4.69-0.72,3.52-.76,7-1.68,9.05-5.16a23.92,23.92,0,0,1-8.65,17.66,20,20,0,0,1-2.38,1.76,45.38,45.38,0,0,1,2.38,6.7,45.46,45.46,0,0,1,5.34,1.58c1.49,0.52,3,1.13,4.5,1.54,3.47,1,7,1.74,10.41-.38a23.92,23.92,0,0,1-15.85,11.64,20,20,0,0,1-3,.46A52.79,52.79,0,0,1,438.44,302.75Z" transform="translate(-292.19 -218.47)"/><path class="cls-2" d="M319.69,328.91A223.26,223.26,0,0,1,394.16,316,215.38,215.38,0,0,1,469.3,329.1c0.33,0.14.63-.42,0.28-0.66-13.28-9-40.46-19.48-75.36-19.48-32.75,0-60.94,10.3-74.78,19.31A0.35,0.35,0,0,0,319.69,328.91Z" transform="translate(-292.19 -218.47)"/></svg>