<svg id="Layer_1" data-name="Layer 1" xmlns="http://www.w3.org/2000/svg" viewBox="0 0 152.65 110.65"><title>LuDela-Black</title><path d="M378.94,239.47c1.11.93,2.11,1.77,2.27,3.15,2.21-2.68,3.66-5.6,3-9.22a18,18,0,0,0-2.74-6.11c-.52-.83-1.09-1.63-1.55-2.5-1.06-2-2-4-1.21-6.33a14.81,14.81,0,0,0-4.83,11.16A11.61,11.61,0,0,0,378.94,239.47Z" transform="translate(-317.08 -218.47)"/><path d="M407.88,243.08c3.23-1.26,5.92-3.1,7.08-6.61a17.91,17.91,0,0,0,.58-6.67c-.05-1-.15-2-.13-2.93,0-2.22.17-4.43,2-6.12a14.81,14.81,0,0,0-9.66,7.39,11.61,11.61,0,0,0-.34,11.08C408,240.57,408.41,241.8,407.88,243.08Z" transform="translate(-317.08 -218.47)"/><path d="M438.92,252.23a18,18,0,0,0,3.51-5.7c.39-.9.74-1.82,1.2-2.68,1-2,2.14-3.88,4.56-4.56a14.8,14.8,0,0,0-12,2.27,11.6,11.6,0,0,0-5.27,9.75c-.14,1.44-.28,2.74-1.33,3.65C433.08,255.29,436.31,254.85,438.92,252.23Z" transform="translate(-317.08 -218.47)"/><path d="M443.56,276.23c2.91,1.9,6,3,9.49,1.93a17.94,17.94,0,0,0,5.77-3.39c.76-.61,1.5-1.26,2.31-1.81,1.83-1.26,3.71-2.43,6.16-1.9a14.81,14.81,0,0,0-11.63-3.58,11.6,11.6,0,0,0-9.22,6.15C445.65,274.83,444.92,275.91,443.56,276.23Z" transform="translate(-317.08 -218.47)"/><path d="M461,298.39a11.61,11.61,0,0,0-11,1c-1.27.68-2.44,1.28-3.78.91,1.65,3.06,3.8,5.5,7.42,6.22a17.88,17.88,0,0,0,6.69-.23c1-.17,1.92-.39,2.9-.49,2.21-.24,4.42-.37,6.32,1.27A14.82,14.82,0,0,0,461,298.39Z" transform="translate(-317.08 -218.47)"/><path d="M337.95,301.74c1.06-1,2-1.86,3.42-1.85-2.38-2.53-5.09-4.34-8.77-4.1a17.82,17.82,0,0,0-6.4,1.94c-.89.41-1.76.87-2.68,1.22-2.07.79-4.17,1.49-6.44.4a14.82,14.82,0,0,0,10.46,6.21A11.6,11.6,0,0,0,337.95,301.74Z" transform="translate(-317.08 -218.47)"/><path d="M329.7,273.56a11.59,11.59,0,0,0,11,1.38c1.39-.39,2.66-.73,3.89-.08-1-3.34-2.54-6.19-5.92-7.67a17.86,17.86,0,0,0-6.58-1.21c-1,0-2,0-2.94-.14-2.21-.24-4.39-.59-5.9-2.6A14.82,14.82,0,0,0,329.7,273.56Z" transform="translate(-317.08 -218.47)"/><path d="M355.38,252.68c1.41.29,2.69.57,3.49,1.71.68-3.4.58-6.66-1.74-9.53a17.92,17.92,0,0,0-5.3-4.09c-.85-.48-1.73-.93-2.54-1.47-1.85-1.23-3.64-2.54-4.05-5a14.82,14.82,0,0,0,1,12.12A11.59,11.59,0,0,0,355.38,252.68Z" transform="translate(-317.08 -218.47)"/><path d="M438.44,302.75a20.24,20.24,0,0,1,3.16,1.31,25.17,25.17,0,0,1,10.73,10.77c-6.64-2.3-14.44-5.39-23.75-7.17A32.31,32.31,0,0,0,431.14,294a37.48,37.48,0,1,0-72.3,13.87,127.07,127.07,0,0,0-24,7.48,28.14,28.14,0,0,1,9.92-10.92,19.21,19.21,0,0,1,4.07-2,45.72,45.72,0,0,1-.75-6.71,43.12,43.12,0,0,1-5.3-3c-1.33-.85-2.63-1.77-4-2.52-3.16-1.72-6.37-3.28-10.23-2a23.92,23.92,0,0,1,18.08-7.71,20.5,20.5,0,0,1,3.35.29,45.23,45.23,0,0,1,2.44-6.35,43.68,43.68,0,0,1-3.27-5c-.79-1.37-1.51-2.79-2.39-4.1-2-3-4.13-5.86-8.13-6.52a23.91,23.91,0,0,1,19.6,1.55,20.29,20.29,0,0,1,2.78,1.77,45.87,45.87,0,0,1,5.15-4.55,44.07,44.07,0,0,1-.55-5.88c-.06-1.58,0-3.17-.22-4.74-.39-3.57-.94-7.11-4.18-9.55a23.91,23.91,0,0,1,16.65,10.45,20.35,20.35,0,0,1,1.59,2.74,45.19,45.19,0,0,1,7.69-1.8,44.68,44.68,0,0,1,2.3-5.29c.71-1.41,1.49-2.8,2.09-4.26,1.38-3.32,2.59-6.68.93-10.38A23.92,23.92,0,0,1,402,246.06a20.43,20.43,0,0,1,.08,3.07,45.19,45.19,0,0,1,6.81,1.82,45.33,45.33,0,0,1,4.4-3.54c1.28-.93,2.62-1.79,3.83-2.81,2.76-2.3,5.39-4.72,5.63-8.77a23.92,23.92,0,0,1,.52,19.66,20.06,20.06,0,0,1-1.31,2.69,46,46,0,0,1,5.21,4.81,45.79,45.79,0,0,1,5.49-1.08c1.57-.23,3.15-.38,4.69-.72,3.52-.76,7-1.68,9.05-5.16a23.92,23.92,0,0,1-8.65,17.66,20,20,0,0,1-2.38,1.76,45.38,45.38,0,0,1,2.38,6.7,45.46,45.46,0,0,1,5.34,1.58c1.49.52,3,1.13,4.5,1.54,3.47,1,7,1.74,10.41-.38a23.92,23.92,0,0,1-15.85,11.64,20,20,0,0,1-3,.46A52.79,52.79,0,0,1,438.44,302.75Z" transform="translate(-317.08 -218.47)"/><path d="M319.69,328.91A223.26,223.26,0,0,1,394.16,316,215.38,215.38,0,0,1,469.3,329.1c.33.14.63-.42.28-.66-13.28-9-40.46-19.48-75.36-19.48-32.75,0-60.94,10.3-74.78,19.31C319.07,328.47,319.23,329.07,319.69,328.91Z" transform="translate(-317.08 -218.47)"/></svg>