<svg id="Layer_1" data-name="Layer 1" xmlns="http://www.w3.org/2000/svg" viewBox="0 0 1000 1000"><defs><style>.cls-1,.cls-2,.cls-3{fill:#dfbd53;}.cls-1,.cls-2{stroke:#fff;stroke-miterlimit:3.97;}.cls-1{stroke-width:0.5px;}.cls-2{stroke-width:0.3px;}.cls-3{fill-opacity:0;}</style></defs><title>Artboard 1</title><path id="bf" class="cls-1" d="M237.45,373.72c.85-2.2,1.62-4.76,1.11-7.12-.56-2.58,1-1,2-3,.61-1.2,1.95-4.83.54-5.93-.95-.73.94-2.39-1.9-3.16,1.33.07,2.16-1,3.17-1.59,1.65-1,4-.18,5.71-1.22,2.08-1.27,4.59-6.2,2.76-8.37-.88-1,.4-1.72,1.54-1.59,1.74.2,1.6-1.37,1.34-2.74-.17-.9-1.94-2.23-.4-2.76,1.19-.41,2.82-3.77,3.56-4.79-.1,2,4.67,4.43,6.31,4.59-.39-1.91.85-1.66,2.41-1.61-.21-1.75.66-4.13-.24-5.74a11.13,11.13,0,0,1,3.79,1c1.74-2.61,1.53-8.34,6-8.81,2.23-.23,5,3.3,5.43-.65.23-2.12,2.57-1.84,4-2.6,1.88-1,3.32-2.4,5.28-3.33,2.35-1.12,6.64-6.9,9.92-3.94.62.56,2.15-.74,3.15-.44a28,28,0,0,1,4.05,1.52c2,1-1.67,6,1.38,7.67,1.88,1,.4,4.22,1.82,5.64.8.8,2.41,2.47,2.14,3.53a51.38,51.38,0,0,1,8,5.2,2.86,2.86,0,0,1-3.2-.23c-1.55,4,3.67,8.57,6.82,10.07,2.53,1.21,4-1.81,5.76-1.29,1.48.43,1.77,2.78,2.34,4-4,1.39-.67,3.7.82,6.47,1.58,3-2.24,7.24-5.14,7.43-.72,0-3.5.85-4,.44-1.43-1.14-1.74-.56-2.93.51-2.34,2.11-3.67,4.88-6.67,5.31-4.63.66-5.45-.8-8.18-1.31a22.67,22.67,0,0,0-3.91-.7c-1.21,0-4.34,3.1-5.23,2.71-2.16-.94,2.6-1-13.67-1-5.4,0-8.6.38-13,0,.53,2.49-1.86,3.77-1.19,5.28a22.21,22.21,0,0,1,1.73,5.82,23.58,23.58,0,0,1,.27,6.14c-.19,1.79,1.21,4,0,4.92-2-1.5-3.92-5.1-5.28-7.23-1.15,1.71-5.78-.34-7.57.34-2,.75-6.06,1.35-6.09,4.13-1.24-.21-5.58-2-6.34-3s-1.46-1.33-1.59-2c-.26-1.37-1.53-4-2.52-4.52-1.66-.91-3.52.42-4.12-2.07"/><path id="ly" class="cls-1" d="M418.47,103.39c-1.54-1.32,1.75-2.88,2.6-3.27,2.56-1.19,3.94-1.87,5.49-4.38,1.25-2,2.49-3,2-5.61-.42-2.24-1.48-4.5-1.25-6.84.32-3.21,4.21-2.39,4.83-4.69.67-2.48,2.69-3.76,4.77-4.74,1.59-.76,6.75-2.17,6.79-4.36,0-1.1-1.06-1.78-.94-2.95.21-2.14.29-4.29.5-6.43,2.06,1.43,4.83,2.16,7,3.52A11.92,11.92,0,0,0,458,65.25c2.74-.3,4.75-2,7.56-1,2.51.91,5.16,1,7.6,2,2.17.93,3.92,2.6,6.11,3.46,1.92.75,4.5,0,6.21,1.15,2,1.39,2.39,3.78,2.78,6A11.3,11.3,0,0,0,492.09,84c4,3.47,9,2.66,13.84,3.53s11.78,3.09,15.67,6.24c3.11,2.52,6,6.78,10.44,6.38,5.14-.46,10.64-5,11.79-10.16.53-2.38-1.08-4.24-1.81-6.39-.81-2.37-1.4-5.09-.59-7.54C542.93,71.54,550.33,66,555,65.8c2.43-.08,3.85-1.84,6.1-2a22.55,22.55,0,0,1,7,.33c2.62.64,4.9,1.91,7.38,2.88,2.94,1.15,2.16,1.55,2.31,4.13.11,2.09,3.49,2.53,5,2.64,2.92.22,4.81,1.54,7.5,2.32s5.49-.12,8.2.38c1.54.28,3.86,3.35,3.31,5s-2.65,2.14-2.94,4.05c-.4,2.65,1.29,4.61,1.76,7.07.52,2.77-1.26,5.22-2.2,7.63s1.62,5.59,2.05,8.23a130.25,130.25,0,0,1,1.82,13.39l2.84,120H593.2c.11,2.29,0,4.6.22,6.89l-95.1-53.83-21.57,10.33c-1.83.5-4.07-2.48-5.13-3.54-4.45-4.44-9.28-5.34-15.21-6.69-2.12-.48-4.89-.73-6.77-1.9-1.49-.93-2.2-3.54-2.82-5.06-1.82-4.45-4-5.66-8.38-7.3C437,180.19,435.61,179,434,179s-3.22,1.76-4.68.19c-1.18-1.28-3.22-4.55-3.25-6.32-.06-3.69-.42-5-2.45-8.19-1.56-2.42-6.76-6.73-4.53-10,2.58-3.72,6.53-2.3,4.84-8.4-.85-3.05-1.46-5.4-.41-8.5.9-2.65,1.43-4.85.45-7.59s-.23-5.77,0-8.71a24.54,24.54,0,0,0-1.37-10.26,31.45,31.45,0,0,0-4.18-7.89"/><g id="mg"><path id="path2622" class="cls-2" d="M822,822.21c.91,3.83-1,8.5,1.69,11.85,1.33,1.64,1.31,3.48,2,5.37s2.37,2,.65,4-1.43,8.25-.32,10.55a28.12,28.12,0,0,1,2.58,6c.72,3,2.68,3.85,4.89,5.68-2.79-1.62-.38.55.32.76,1,.32,2.11.21,3.14.47,2.51.64,3.87,3.41,6.36,4,4.32,1,8.82-4.56,12.8-5.73,1.46-.43,3,.44,4.34-.05a20.39,20.39,0,0,1,3.12-1.32c1.59-.3,2.54-2.19,3.15-3.5a34.19,34.19,0,0,0,1.89-5.52c.7-2.6,2.3-4.71,3.11-7.2,1.48-4.61,3.08-9.06,4.34-13.79,1.8-6.73,4.52-12.74,6.84-19.26,1.89-5.29,3-10.69,5.3-15.81.68-1.49,2-3.86,1.3-5.56.8,0,1.71-3.23,1.91-3.77,1.35-3.58,2.07-7.36,3.53-10.89,2.14-5.15,4.07-9.54,5.18-15.06.83-4.12-2-10.14,3-12.84,1-.53,2.06-3.64,2.18-4.87s-.14-2.28.06-3.42c.28-1.55-1.63-1.37-1.61-2.85,0-1.13-1.14-9.85,1.66-8.67,2.4,1,1.58,6,3.89,6.81,2.59.91,4.29-6.1,4.58-7.63.41-2.22-1.07-3.32-1.67-5.29-1.11-3.61-1-7.13-1.14-10.85a55.39,55.39,0,0,0-4.64-20.2c-.39.25-.77.52-1.13.81.3-.93-.09-1.11-.66-1.68-.92-.93.52-1.51-.31-2.52s-1.3-4.6-3.29-3.38a3.2,3.2,0,0,1-.11-1.26c3.46.33-1.58-4.9-1-.51.22,1.73-3.34,4.92-5,4.88,3.08,1.54,1.08,6.1.46,8.15-.91,3-.87,5-4.59,5.05.45,2.19-.24.46-1.28,1.72-.76.92-.79,2.23-1.13,3.32-.93,0-4.36-7-4.85-2.08-.18,1.77.44,2.92,1.07,4.5.57,1.42-.44,5.32-.7,2.52-.26,1.37-4.5,1.53-2.83,4.68.89,1.67,4.28,1,2.94,3.7.46-2.09-1.7-2.28-3-1.28-1.8,1.4-1.65,4.53-4.12,5.3-.33-1.77,1.38-3.12,1-4.94-1.77.39-1.36,1.61-2.07,2.87s-2.69,1.89-3,3.33c-.2,1,.85,2.13,1.27,2.94.81,1.6-2.07,1.93-3,2.68.19-1.1,2.21-4.31-.63-4.24-1.63,0-2.94,2.07-4.17,2.92-.83.56-3.05,1.74-2.82,3,.11.65-.42,1.47-.18,2.08.33.85,1.48.7,1.74,1.72-1.27-.08-2.59.18-2.82-1.62-.29-2.26-2.5-2.22-2.58.13-.53-.88-3.08-1.13-4-.7-1.12.55-.69,2.43-1.54,3.22,0-2.38-2.73-.51-2.89.92a12.2,12.2,0,0,0-1.37-2.07c-1.37,1-2.43,2.59-4,3.19s-4.15-.65-5.37.48c-.59.56-.09,5.09-.59,4.6.44,1.84-.88,4-1.77,5.45-1.49,2.5-6.26,7.15-4.43,10.16,1.26,2.08.16,5.83.37,8.25.23,2.75,2.2,5,2.19,7.75,0,2.52-.17,4.11,1.19,6.35,1.46,2.4.63,3.48-.09,5.81-.52,1.68,1.6,2.2.6,4s-2.45,3.75-3.6,5.63a43.91,43.91,0,0,0-3.66,6.25c-.68,1.71-.12,4.55-2.29,5.31-2.6.91-3.22,1-3.47,3.95-.21,2.49-2.46,4.77-3.08,7.32"/><path id="path2624" class="cls-2" d="M889,702.83c.57-1-.12-2.06-.8-2.76-1.13.93-.87,2.78.8,2.76"/><path id="path2628" class="cls-2" d="M907,748.85v-.69c-.7,1.28-2.45,2.72-1.72,4.37.73-1.16,1-2.5,1.72-3.68"/></g><path id="ci" class="cls-1" d="M199.46,427.91c.68-1.47,2.46-1.8,3.08-3.38a14.92,14.92,0,0,0,.8-3.85c.13-2-.68-5.73-2.15-7.23.94-1,2.24-.48,3.2.11.21-1.21,2.14-2.52,1.38-3.85-.62-1.07.39-3.36,1.84-2.58-1.1-1.63-3-2.64-3.51-4.65-.93-3.78,6.14-.81,7.28-.29-.82-2.51-.51-5.32-3.78-5.85.59-1.68.6-3.46,2.76-3.79-1.79-2.12-2.13-1.66-1.5-4.82-3.89,2.51-3.73-6.12-3.22-8s1.8-2.31,3.42-2.79c.88-.26.94-1.91,1.63-2.49,1-.86,2.2-.3,3.33-.8-.24,2.24,4.28,4.47,6.09,3.67-1.22-2,.85-2.13,2.33-2.11,2,0,1.28-3.24,1.34-4.55.78.43,1.58,1.9,2.65,1.61s1.22-2.2,2.3-2.64c.88,1.59-.37,6.95,1.92,7.52,2.07.51.4-4,6.68-3.81.61,0-1.33,1.81,3.69,2.13,2.36.15,2.85,4.82,3.17,5.2a15,15,0,0,0,7.82,4.69c0-2.79,4.13-3.39,6.09-4.13,1.79-.68,6.42,1.37,7.57-.34,1.92,2.28,2.7,4.77,5.28,7.23a13.09,13.09,0,0,0,.81-1.15c.76,2.28-1,4.46-.68,5.61.55,1.92,1.68,2.84,1.94,5.05.21,1.83,1.35,4.93.67,6.65-.76,1.94-1.74,3-2.69,4.75-1.27,2.35-3.42,3.72-3.35,6.32.09,3.39-1.58,5.86-2.27,8.38s-.39,7,1.25,9.11a8.86,8.86,0,0,1,1.74,7.28c4.08-1.13,1.69,5.07,2.36,7a7.6,7.6,0,0,0-2.41.34,10.69,10.69,0,0,1,.8-1.26c-1.92,2.88-3.5-.74-3.91-2.18-1,1.15-1.43,2.74-3.2,2.87a4.92,4.92,0,0,1-3.44-1.26c-.63,1.17-2.09.06-2.65-.46,1-.22,2.11.76,2.87-.34a4.24,4.24,0,0,0-1.15-.92c.48,2.29-.46.16-2.06.57.33.68-3.78.29-4.78.4-.51.06-5.61,1-5.2,1.19,2.56,1.38,7.57-3,9.62-.44a76.91,76.91,0,0,0-9.33,1.25c-.7.12-2.16.42-2.61-.4-.63-1.17-3.71-.63-4.81.42a5.39,5.39,0,0,1,4.59.11c-3.91.45-8.08.23-11.76,1.83-3.18,1.37-6,4-9.6,4.32-1.81.18-5.68,2.23-7,3.51-3,2.88-3.52-2.44-3.05-4.63a73.57,73.57,0,0,1,2.18-7.64,7.24,7.24,0,0,0-2.12-7.88c-1.37-1.15-3.37-1.67-3.15-4.09.26-2.77-8.19-.36-6.48-3.55a2.83,2.83,0,0,1-2.63-.92"/><path id="dz" class="cls-1" d="M205.54,141.27l.81-17.33c-.75-4.66,6.39-6.2,9-8.54,1.28-1.16,3.36-3.54,5.32-3.41,1.71.11,2.1-2.47,4.35-2.9,3.66-.71,5.53,2.84,7.73-2,.68-1.5,3-.87,4.27-1a32.06,32.06,0,0,0,7-1.46c4.47-1.65,4.65-6.45,8.46-8.46,1.57-.83,3.63-.92,5.28-1.54,2-.76,3.38-3,5.48-3.46.77-.15,4.91-.49,3.22-2.68-1.1-1.41-2.84-1.93-.59-4-3.22-.88-.31-4.25,2-4.06,3.12.26,6-.85,7.11-3.77,2.12-5.6,16.57-.64,20.69-1.7-4.73-2.13,3.45-4.74.88-6.72a20.65,20.65,0,0,1-3.56-3c-1.14-1.38-.55-3.36-1.67-5.06s-.52-3.23-.18-5-1-1.67-.78-3.27.14-3.3.16-4.79c0-2-1.31-3.61.68-5.16-2.06-.84-1.23-2-1.53-3.53-.4-2.05-4-2.72-4.74-4.83,3.82,0,5.45-.94,8.69-2.59,1.41-.72,2.3-.72,3.16-2.21a6.93,6.93,0,0,1,2.72-3.17c.79-.42,2.32-1.65,3.16-1,1.08.86,2.45-.63,3.17-1.29,1.87-1.71,4.44,2.6,6.36-1.34,2.57-5.27,11.41-7.55,16.58-8.15,3.69-.42,7.41-1.44,11.13-1.19,2.77.19,4.68-3.35,7.08-2,1,.59.81.26,1.21-.4.09-.14,4.24-.08,4.86-.33,3.59-1.42,7.22-.89,11-1,3.15-.09,3.89.56,6.29,2.37,3.06,2.31,4.12-1.1,6.77-1.43.85-.1,6.15-.33,5.86-1.9-.52-2.82,3.33-1.08,4.25-.47,1.91,1.28,4.8,1.93,6.76.36,1.08-.86.37-2,2.43-1.47,1.46.36,2.6,1.43,4.19,1.35-1.34,2.22,2,1.44,3,1.17,2.1-.55,4.37,0,6.38-.71.15,2.86-3.47,4.26-5.05,6.08,4.3.93.18,7,1,9.75,1.51,4.82.88,8.46-.14,13.21-.84,3.91-5.19,7-8.09,9.52-1.69,1.5-.87,5.4.12,7.06,1.6,2.68.87,5.6,4.17,6.85,4.5,1.71,3.18,7.42,6.81,10.13,1.68,1.26,3.67,2.17,5.1,3.76,1.93,2.14,2.21,5.65,2.66,8.37.92,5.61,3.59,11.85,3.59,17.51,0,1.53-3.21.94-1.14,3.7a23.26,23.26,0,0,1,4.33,9.12c2.28,11.34-1.07,11.27.64,17.08a10.26,10.26,0,0,1-.22,7.5c-1.22,3-.11,5.89.55,8.94,1,4.6-1,4.67-4.31,7.14-3.72,2.82,2.47,8.28,4.08,10.77,3,4.64,1.2,10.15,5.22,14.49,1.54,1.66,3.31-.33,5-.21,2.08.16,4.34,1.73,6.3,2.44,4.46,1.62,6,5.36,7.6,9.6.78,2,1.57,2.25-.61,3.48-22.63,14.43-45.46,28.87-64.74,47.65-1.11,1.61-4.7,5.65-7.48,7.19-2.11,1.17-5.23,1.28-7.56,1.76-3.17.66-6.34,1.28-9.51,1.95-1.59.34-15.5,5.12-14.91.19.21-1.74,1.45-2.41,1.28-4.33-.07-.74.16-4.62-.61-5a31.06,31.06,0,0,0-7.84-2.2c-1.27-.25-3-3.48-4-3.24-5.58,1.37-6.45-4.19-7.46-5-1.18-1-3.23-1.07-4.31-1.9s-.17-3.23-.9-4.47a11.69,11.69,0,0,0-4-3.81,71.36,71.36,0,0,1-7.33-5.16c-5.85-4.54-11.6-9.22-17.42-13.8-22.46-17.66-44.89-35.25-68.39-51.52Q214,147,205.54,141.27"/><path id="cm" class="cls-1" d="M408.49,451.32a7.13,7.13,0,0,0,2.5-5.08c.06-1.78,2.39-5.23,1.74-6.45s-.94-1.75.91-3.82,3.64-4.16,5.66-6c1.16-1.08,2.63-1.54,3.23-3,.52-1.29,2.54-4.72,4-5.13S429,423.4,431,423c1.54-.34,1.63-2.47,2-3.68.29,1.23,3.59,4.58,4.76,4.89s1.49,2,1,3.22c-.33.91,1.32,2.27,3.11,1.85.54-.93,3.51-3.68,2.78-5.33-.51-1.15,1.89-2.68,2.73-3.35,1.38-1.11,0-2.79.75-4.28,1.47-2.92,3.54-5.59,4.54-9.26.42-1.55-.14-3.19.3-4.65.34-1.13,2.15-1.53,2.06-3.41-.54-.16,4,.45,4.92-4,.21-1,1.95-6,.25-6.31,2-1,4.85-2.27,5.18-4.5a26.64,26.64,0,0,0,.13-4.13c0-1.52,1.53-1.39,2.22-2.43.84-1.27.74-3.06,1.26-4.66s1-3.26,1.24-4.26c.42-2,1.52-5.63,3.57-6.45,1.07-.43,7.47-.38,8.29-4,.23-1-.83-1.82-.68-3a48.37,48.37,0,0,1,.75-4.79c.41-1.82-2.94-3.4-4-3.06-.88.33-2-1.55-2.45-3.91-.34-3.74-.14-5.14-.67-6.22,1.39,0,3.54-.12,4.62,1.08,1.6,1.79-.05,3.57,3.48,4.55,1.82.5,2,4.75,2.15,6.22s-.17.24,1.34,1.68c3,2.9-.23,11.45.19,15.24.59,5.27,3.08,11.29,7.84,13.93-1.92,1.66-4.35.88-5.92.09-1.6.15-2,.4-3.65.47-3.55.14-7.17-2.17-9,.76-2.18,3.55-1.91,4.17,1,7.5s6.11,6.22,9.31,9.27a16.22,16.22,0,0,1,2.89,3.53c1.25,2.34,2.3,7.11,3.67,9.38s-1.41,3.94-2.11,4.87a44.13,44.13,0,0,0-3.66,7.37c-.33.8-1.13,2-1.46,2.86-.61,1.51-1.53,2.7-2.23,4.17-1,2-5.95,4-3.08,5.19,2.09.84,1.92,3,1.63,5.76a7.24,7.24,0,0,1-.9,3.47,10.33,10.33,0,0,1,1.55,2c.36,2.35-.21,5.94,1.35,7.82,1,1.16,2.26,1.6,2.69,3.41.33,1.35.9,3.16,2.15,4-3.93.1,4.92,10.54,5.67,11.14,1.91,1.53,4.59,2.43,4.94,3.82a11.76,11.76,0,0,1,.51,2.62,44.1,44.1,0,0,0,1.27,7.68c-3,1.4.33,6.38-1.59,7.81a15.26,15.26,0,0,0-5.91-3.93c-1-.32-4-1.54-4.81-1a2.65,2.65,0,0,1-3.79-1c0-.08-3.51-.74-3.85-.87-1.08-.42-4.14-.1-5.55-.18-2.57-.15-5.19-.12-7.75-.48-.44-.06-1.7.34-2.2.1-1-.47.43-1.45-1.36-1.27-2.37.23-4.44.62-6.85.1-2.83-.61-5.15-.13-8-.22-1.86-.06-5.18-1.11-6.94-.14-.5.28-.31,1.76-.85,1.76H436.5c-2.45,0-4.88.09-7.33.14-5.25.12-6.37-2.77-5.27-7.64.63-2.77,1.59-5.78.09-8.47-.71-1.27-3.13-3.41-.57-4.25-1.44.83-4.24-.54-2.56-2.21.88-.88,2.85-2.41.27-2.5a3,3,0,0,0,.8-2c-.81,2-1.67.4-3,.46.49.65.83,1.12,0,.69a4.57,4.57,0,0,1-.22,1.84,1.31,1.31,0,0,1-1.26-1.84c-.91,1.66-3.52-.42-3.85-1.64-.53-1.93-.64-5.23-2-6.74-1.58,1.94-1.27-.34-2.3-.34a13.15,13.15,0,0,1,.35,2.29c-3.26.41-1.48-2.65-1.14-4.36"/><path id="bw" class="cls-1" d="M544.28,859.29l1.36-38.23h10.87L558,770.31c3.85-.93,13.64-1.51,19.22-3.44,1.74-.6,6-1.5,7.72-.5,2.36,1.35,2.81,4.16,4,6.37,3.06-2.42,5.47-7.37,9.09-7.46,1.35,0,1.21.76,2.2.9,1.28.18,2-1.58,3-2.15,3.1-1.85,6.35-1.59,5.8-.47a6.81,6.81,0,0,0,.15,2.46,24.66,24.66,0,0,0,3.36,5.87c1.34,1.74,2.42,2.68,3.42,5.68.72,2.15,1,2.6,1.6,4.64a16.85,16.85,0,0,0,8.3,9.94c4.12,2.12,7.89,1.69,6.48,8.25,3.76-.88,6.7-.44,5.08,4.55a4.73,4.73,0,0,0,.62,4.52c1.07,1.62,1.82,5.49,3.53,6,3.44,1.07,6.42.89,10.1,2.14,2.73.93.37,2.21,1.21,3.61.65,1.08,3.07.74,3.46,2.29-4.29.53-3.6,1.44-5.19,3.66-1.77,2.48-6.61,1.24-8.7,3.5-1.89,2-3.47,5.44-6,7.45-.28.22-1.27,1.14-2.31,1.87-1.73,1.21-3.62,1.65-4.94,3.14-1.75,2-2.09,2.56-2.39,5.54-.37,3.66-2.51,4.49-5.1,7.58-1.52,1.82-4,2.32-6.6,2.74-1.84.3-.75,1-1.1,2.8-.46,2.35-1.6,4.48-2.36,6.73-1.13,3.34-2.91,4.51-6.33,4.21-3.1-.27-2.74,2-6.72,1.08-1.58-.35-5.37-2.12-6.72-2.21-2-.13-3.27-1.36-4.4-2.79-1.69-2.12-6.31-3.67-8.7-.59-2.18,2.81-1.22,6-3.23,8.85a13.81,13.81,0,0,1-3.75,3.33c-1.66,1.14-2.14,3-3.56,4.29-1.05,1-2,.56-3.13,1a1.22,1.22,0,0,0-.34,1.28c-.46,1.27-2.37,1.62-3.49,1.55-1.77-.12-2.76-.56-4.46-.69-1.55-.12-2.93-.73-4.91.91-2.89-5.51,3.14-8,1-15.5a39.53,39.53,0,0,0-3.4-8.56c-1.28-2.24-3.75-3.36-5.23-5.44"/><path id="ke" class="cls-1" d="M718.75,532.14c2.42-1.76-3.64-9.11,4.76-7.38,0-.46.48-1.4,0-2.27l5-.65c-3.31-5-4.73-1.08-6.31.3-1.35,1.18-4.64-4-4.47-7.2,1.28-2.3.43-3.35,2.81-5.51,1.77-1.6,3.17-6.88,6-8.17,1.36-.61,1.16-.82,1.08-2-.11-1.86,2-2.75,2.52-4.4a32.16,32.16,0,0,0,.92-5.85c.17-1.77-1.61-3-2-5-.83-4.46-3.58-5.42-4-7.39a34.19,34.19,0,0,0-1.71-4.36,5,5,0,0,1-.59-2.08c0-1,1.11-1.56.81-2.62s-1.3-1.19-2.09-1.48c-1.8-.67-.48-2-2.39-1.84.78-1.79-1.44-3.51-1.23-4.75s1.74-2.23,2.59-3.12c3-3.12,6.61-2.22,10.51-2.22,2.24,0,4.48-.18,6.71-.21A20.1,20.1,0,0,1,741,454c.94.15,1.23,1.8,2.36,2.23,3.48,1.35,7.36-.3,10.91,1.35a41.73,41.73,0,0,1,10.57,7.73c1.47,1.44,2.65,2.46,4.77,2.69,1.38.15,4.53-.71,5.62,0,3,1.94,7.69.22,10.34,2.76.37-1.81,2.85-4.44,4-6,2-2.77,6.24-3.88,9.18-5.25,3.14-1.46,3.69,2,6,3.35,1.61.94,3.35.33,5,0,1.36-.25,3,.65,4.25-.06-2,3.35-3.75,7-6.13,10.08-2.51,3.24-4.77,5-4.76,9.4,0,10.28.11,20.56.1,30.85,0,7.71-1.54,15,3.63,21.31,1.75,2.13,4.4,4.89,2.51,7.69-1.11,1.65-4.41,4.66-6.48,2.76-.17.41-.32.83-.46,1.26a11.37,11.37,0,0,1-.91-1.26c.54,1.25,1.93,3.56.69,4.83-.22-3.12-1.51.45-1.82,1.17-.64,1.48-1.88,1.76-3.29,2a4.13,4.13,0,0,0-3.39,5.84c.46,1.21-1.75,4.7-2.66,5.44-1.55,1.26-2.85,9.72-4.58,9,.75,3.28-2.53,5.61-3.09,8.61-1.33-1-1.18.73-2.3.46-1.41-.33-3.2-2.78-4.29-3.61C772,574.92,766,570.95,763,567c-.78-1-2.21-1.21-.58-3,2.31-2.55-1.73-5.62-3.81-6.93l-40-25"/><g id="sl"><path id="path2896" class="cls-2" d="M147.56,412.64l-.33.8a30.14,30.14,0,0,0,4.7,1.38c.28-.61.49-1.46-.2-1.9-1.18-.75-2.87-.2-4.17-.28"/><path id="path2902" class="cls-1" d="M142.86,393.12c1-.9,2.24-.11,3.33-.8s.77-2.49,2.06-2.87c2.12-.62,3.56-4.73,4.22-6.58,1.11-3.09,4.39-.82,6.7-2.36,2-1.32,7.51-1.43,9.48,0s2.82,3.8,4.06,5.74a18.13,18.13,0,0,1,1.78,3.18c.31.83-.61,1.83,0,2.42s1.5.56,1.57,1.79c.06,1-.31,2.63.43,3.41,1,1.09-2.45,4.61-2.25,6.48.26-.58,2.84-1.93,3.44-2.3,2.36-1.42,2,.53,1.4,2.31-.65,2-3.64,1.48-3.9,4.43s-.35,2.69-1.91,4.34a29.31,29.31,0,0,1-4.23,3.91c-2.39,1.74-3.46,6.16-4.51,5.84a99.12,99.12,0,0,1-11.88-6.58c2.59.73.55-.49-.11-.92,1.11-.77,2.54-.78,3.56-1.72-2.13.26-5.23.59-3.44-2.53-1.4,3.21-3.14-.4-4.34-.23-.85.12-1.59-5.52-1.62-6.2-1.76.41-4.51-1.05-3.22-3.33a18.28,18.28,0,0,0,2.41,1.61c-2-1,.94-2.73,2.07-2.64-.46-.76-.25-.57-.11-1.49-1,2.08-2,1-3.33.23a12.23,12.23,0,0,0-.46,1.26c-1.5-2.53-.25-3.5,1.95-4-.85-1.12-2.52-1-3.09-2.41"/></g><path id="ml" class="cls-1" d="M157.21,314c2.15-.52,3.12.65,4.87-1.6,1.48-1.9.81-6,1.54-8.34,1.64-5.4,9.14,3.54,9.91,5.23,1.43-3.93,3.82-6.08,8.33-4.24,3,1.2,9.26,1,9.91-3.1,1.69,4.09,10,2.26,13.28,2,8-.61,16.16-.18,24.15-.18,2.82,0,6.29-.33,9.07,0,2,.21,1.45-3.19,1.65-4.94.22-2,2.15-5.79.08-7.11-3.57-2.27-2.62-4.28-2.59-7.16l-8.34-111.72h21.12c21.84,16.36,42.33,32.66,63,48.88,2.48,1.79,7.15,3.59,6.8,7.33-.11,1.17-.27,2.21,1.82,3.05a16.6,16.6,0,0,1,3,1.27c1.44,1,1.21,2.69,2.36,3.85a5.89,5.89,0,0,0,3.66,1.49c1,.18.27-.94,2.11,0,1.32.66,1.89,2.4,3.4,2.88,2.35.74,5.5.94,7.67,2.23,1.59.94,1.13,5.35.45,6.89-.94,2.14-2.31,4.17,1.09,4.65,3.6.52,7.67-1.4,11.23-1.84-.46,9.79.94,20.2-.33,29.9a44.14,44.14,0,0,1-.64,7.18c-.27,1.74.34-.48-2.09,4.63-.75,1.57-.7,3.46-1.38,5.08s-2.17,2-3.42,3c-1.53,1.18-.49,2.73-2.58,2.37-.48-.08-4.66-1.2-4.85-.47-.5,1.89-13.57,1.25-15.55,1.41-4.85.39-4.75-.21-8.18,3.54a5.32,5.32,0,0,1-4.7,1.26,25.93,25.93,0,0,0-3.76-.16c-1.58,0-1.48-1.24-1.48.73-1.14-.43-2.24-1-3.37-1.45-2.72-1.14-3.37.77-4.4,0s-2.72-1.71-5,.3-5.76,3.84-7.1,4.74c-2.25,1.51-3.91,2.7-6.21,3.28-1.89.48-.35,4.49-3.16,3.26-1.73-.76-3.3-1.81-5.13-.54-1.56,1.08-2.4,3.06-3,4.77a31.7,31.7,0,0,1-1.22,3.46,21.13,21.13,0,0,0-3.94-1.06c.9,1.61,0,4,.24,5.74-1.55-.05-2.8-.31-2.41,1.61-1.65-.16-6.41-2.57-6.31-4.59-3,7.24-5.26,3.83-3.74,6.41a4.35,4.35,0,0,1,.54,3.74c-.14.5-3.77-.13-2.89,1.39,1.63,2.8.91,5.82-2.24,8.48-1.46,1.24-3.21.73-5,1.06s-2.58,2.1-4.38,2c3.19.8.88,2.46,1.84,3,1.64,1,.24,5.17-.66,6.68-.3.5-2,.71-1.9,1.19.52,2.41.83,5.4-.83,7.57-.67.87-2.62.84-3.56,1.1-2,.55-1,3.17-3.44,2.94-2.76-.25-.95-5.76-1.89-7.46-1.07.44-1.28,2.36-2.3,2.64s-1.87-1.18-2.65-1.61c-.06,1.3.64,4.58-1.34,4.55-1.48,0-3.55.09-2.33,2.11-1.81.8-6.33-1.43-6.09-3.67-.93.41-2.43-.06-3.14.79-1.11,1.34-1,2.93-3.17,3.12,1.63-3-3.75-3.48-3.76-6.06,0-1.65.41-3.58,0-5.18-.55-2.29-3.59.39-4.65.34.4-1.47,1.57-5.35,3.79-4.59.8-2.21-3.75-3-4-5.17-1.45.82-1.32-.81-1.18-1.73.3-2.09-.54-2.9-1.43-4.65-.7-1.38.18-3.34-1.44-4.15-.63-.32-2.83-1.54-3.49-.92s1.6,2.38,0,3.11c-1.76.83-3.15,2.24-4.94,3.13-1.24.62-2.62-1.16-3.63-1.57-2.18-.89-3.87-.73-5.42,1.11-3.89,4.64-1.76-.89-5.14-2-2.2-.74-4.52,6.28-6.67.86-.69-1.73,2.17-3.32.79-5.27-.8-1.13-.17-3.81.26-5,.51-1.39-3.72-9.31-4.6-5.87-1-.28-2.58-3.36-3-4.3s.88-2.53.83-4.19c-.07-2.5.22-3.57-1.56-5.54-.62-.68-1.26-1.5-.85-2.49.7-1.69.21-1.69-.46-3.35"/><path id="cd" class="cls-1" d="M452.58,597.35c1.09-.83,2.45-.13,2.88-1.61.35-1.2,1.34-5.93.49-6.9-2.21-2.53,6.37-6.36,8-7.8.44,1.83,3.11,2.09,3.22,4a28.6,28.6,0,0,1,2.94-2.19c1.3-1,.76-2.94,1.89-4.13,1.91,2.54,4.78-2.32,7-1.19s.17,1.56-.17,2.91c-.37,1.52.59,3.18.59,4.7,1-1.23,3.06.32,4.35-.57,1.9-1.32,3.08-3.83,4.53-5.61.75-.92,3.8-2.39,4-3.23.43-2.2,2.26-2.73,4.08-3.51,4.24-1.81,5-9.79,4.89-13.6a82.39,82.39,0,0,0-.18-8.42c-.35-2.78,3.15-3.49,4.32-5.69,2.76-5.18,2.55-8.45,8.17-12.26a20.74,20.74,0,0,0,5.37-5.7c1.56-2.2.43-5.42,1.07-7.95a139.38,139.38,0,0,0,1.74-14.25c.11-2.82,1.74-5.3,2.21-8.05s-.33-5.48.27-8.12c1.13-5,4.09-9,5.79-13.75,1-2.74.51-5.63.44-8.43,0-1.29.56-2.64.36-3.9a28.13,28.13,0,0,0-1.16-3.14c-.49-1.72,2.51-1.67,3.2-3.24a19.54,19.54,0,0,1,3.59-5.81c1.57-1.68,3.53-3.11,5.93-3.09,2,0,2.85,1.77,4.15,2.06,3,.67,5.82,3.93,6.95,6.71.92,2.27,4.17.57,6,1.13,1,.3,1.49,1.65,2.64,1.59a3.15,3.15,0,0,1,2.27.3c1.58.81,1.9,0,3.45-.1a8.27,8.27,0,0,1,3.13.83c1.71.63,4.05,1.87,5.92,1.21,3.34-1.18,2.32-9.17,6.77-9.37,2.53-.12,3.21,5,6.52,1.88,1.4-1.32,11.06-2.6,10.48-5.78,2-.09,2.67,2.66,4.59,2.47,2.31-.23,6.26-.58,7.22-3,.36-.92-.57-1.84.65-2.44,1.49-.74,2.71-.3,3.87.84,1.86,1.83,3.58-.32,5.64.65,1,.48,1.86,1.25,2.86,1.76,1.16.6,2,.09,3.22.27,2.92.44,4-2.8,7.13-1.06,1.17.66,5.23,3.22,5.23,4.74a4.5,4.5,0,0,0,1.68,2.86c3,1.23,5.9,5.69,9.13,2.64,1.83-1.73,3.18-2.07,5.61-.88s3.48.73,5-2.17c1.94-3.82,6.89,5.75,7.15,6.38,1.14,2.8,8.69,3.17,6.38,7.53,1.47-.34,3.24-.44,3.61,1.43a5.2,5.2,0,0,0,.76,1.38c.21,1-1.1,2.75-1,3.75.46,3.21-.09,6.4-.54,9.46-.24,1.61,1,1.4,2.76,1.08.83-.15,4,2.07,3.42,3.82-1.38,4.19-6.58,8.35-9.57,11.45-1,1-3,3.76-4.18,4.77s-1.31.15-2,1.46c-.86,1.65.19,3.66-.85,5.35a18.79,18.79,0,0,0-2.56,6.9c-.22,2-.19,4-.33,5.95-.16,2.32-.47,4.34-.71,6.54-.17,1.61.24,3.87-.5,5.34-.84,1.68-2.2,2.3-3.43,3.66-1.9,2.1-1.74,2.78-1.81,5.24,0,1.62-1.78,3.45-2.66,4.61-1.94,2.56.76,5.23,2.26,7.66,1.13,1.83,2,3.12,1.11,5.65-3,2.67.65,11.05-2.24,13.81,2.1,1.21,1.72-4.2,2.44-3.29.72,4.26-1.95,7.35-2,11.53,0,5.42,4.54,7.92,2.62,11.67-1.11,2.17-2.28,2.64-1.34,4,1.44,2.14,2,5.66,4.88,11.21,1.9,3.71,7.31,3,7.64,12,.13,3.51,2.87,1.58,3.92,7-7.5,1.71-13,1.91-20.56,3.52,3.11,5.14-5,7.28-6.43,11.13,4.33,1.34,2.89,8,2.6,11.3-.21,2.38.69,4.63.55,7a9.61,9.61,0,0,1-.83,3.48,21.84,21.84,0,0,0-1.61,4.34c-.78,3.2-1.87,5,.17,8.12a43.93,43.93,0,0,0,5.88,6.62c.84.79,5.27,3.51,5.61,1.86.62-2.93,1.38-2.38,4.26-3.21,0,4.62-.15,9.26-.28,13.87,0,.71.51,3.76-.68,3.88-1.4.14-1.71-1.48-.74-2.25-2.07-2.54-6.71,5.38-8.9.63a28.41,28.41,0,0,0-2.48-5c-.61-.82-2.23-1.87-2.42-2.83-.37-1.89-.74-4.07-3.12-4.14-2-.06-2.84-2.14-4.75-2.37-1.6-.19-2.58,1-3.68-.74-.85-1.36-.88-3.35-2.13-4.46-1.78-1.59-3-7.14-4.59-2.16-1.6,5.13-4.4,2.43-8.4,2.57-2.7.1-3.33-.76-5.61-1.79-.15-.07-2.54-.64-2.61-.63-3.63.64-4.71-4.88-3.43-7.4a22.14,22.14,0,0,0-6.55,1.39c-2.56,1-3.1,2.23-6,1,1.1-2,1.17-4.58.21-4.53-1.24.06-1.76-1-2.62-1.82-2-1.9-1.73.34-2.2.51a5.82,5.82,0,0,1-4.15.11c-1.92-.5-3.12.85-4.82,1.45-2.19.77-3.58-.7-5-.45-.51.09-2.53-.13-2.6-.1-1.37.74-2.07,2.81-4,2.76.43-1.42-.42-2.53-.67-3.86-.34-1.83.92-2.16,1.32-3.56.93-3.26-.35-8.92-2.33-11.54-2.41-3.2-3.45-5.2-3.14-9.34s1.81-8.77.69-13c-.43-1.63-1.58-3-1.56-4.77,0-2,1.1-3.78,1.25-5.72.25-3.19-1.82-2.84-4.41-2.86s-4.91-.06-7.36,0c-5,.21-4.27-.89-2.85-5.16a8.72,8.72,0,0,0-3.34.14c-.74.29-.2.61-.61,1-1.33,1.14-7.46.15-9.25.15.59,1.51-.51,3.27-.25,4.88.21,1.3.26,3.37-1.82,2.93.68,2-.53,4-.11,6-.84,0-6.33.18-7.22-.33-2.63-1.52-7.25,1.32-8.15,1.4a37.52,37.52,0,0,0-6.33-.23c-2.9-.61-4.16-6.64-5.61-8.77-.51-.75-.91-1.29-1.44-2-1-1.38-.53-2.37-.73-3.83-.36-2.61-3.09-4.33-2.7-7.1.35-2.49,0-4.58-1.18-6-1.63-2-1.6-2.78-4.14-2.66a198.87,198.87,0,0,1-20.91.21c-5.64-.32-12.24.61-17.78-.46-4.43-.85-8.1,5.74-10.71-.92"/><path id="so" class="cls-1" d="M803.15,485.76c0-2.24-.58-5.35.39-7.45s2.8-3.54,4.07-5.34c2.53-3.6,4.73-10,8.57-12.36,3.5-2.12,7.6-.75,10.67-4,3.48-3.74,6.78-6.18,12-6.94,3.94-.57,10.87,2.23,13.59-1.38l34.58-40.89c-4.18,0-8.52.71-12.63-.34-4.66-1.2-9.11-3.44-13.61-5.12s-9.26-3.52-13.89-5.28c-4.29-1.62-8-2.76-11.34-6.06-1.1-1.1-1.46-1.69-3-2.09s-2.16-2.82-2.88-4.09a28.36,28.36,0,0,0-3.79-5.82c-2.08-2.28-4.52-5.19-3.58-8.58,1-3.71,4.29-7,5.74-10.64,3.83,2.14,5.94,7.24,8.56,10.55,3.27,4.13,8.26,5.27,13.32,3.6a26,26,0,0,0,6.1-3.59c2.92-2.16,3.75-1.8,7.35-1.2s5.39,1.39,8.86-.77c1.75-1.09,5.77-5.17,8-4.37a9.07,9.07,0,0,0,6.88.07,45.16,45.16,0,0,1,4.81-1.74c1.92-.43,3.2.41,5,.59,3,.3,5.29-1.48,7.88-2.53s5.77-.61,8.49-2c2.27-1.15,2.5-4.11,4.42-5.06s7.9.68,7.16,3.37c-1,3.49-1.61,5.62-1,9.32.44,2.58,1.12,6.27-1.14,8.25,1.5.56,2.74.21,2.41-1.38a7.09,7.09,0,0,0,2.42,1c-.5,2.47-6.1-.92-6.13,3.43,0,3.55.28,7.17-.7,10.65-.84,3-2.63,5.24-4.31,7.73-2,2.91-1.73,7.22-4.12,10-.93,1.09-2.21,1.36-2.86,2.8s-.09,3-.62,4.55c-1.22,3.44-3.68,6.18-5.4,9.35-2.28,4.22-2.47,8.87-4.25,13.23s-4.64,8.36-7.24,12.35-4.2,8.37-7.09,12c-3.21,4-6.42,8-9.69,12-6.57,8-13.26,14.46-22,20.07A58,58,0,0,0,843,499.57c-3.43,3.51-7.36,7-10.46,10.76s-6.3,7.41-9.33,11.17c-1.48,1.84-2.77,3.81-4.21,5.67-.89,1.15-3.55,5.32-4,2.89,0,3.95-2.58,7.74-5,10.72.2-3.1-2.78-5.66-4.91-8.71-2.43-3.49-2-5.89-2.08-9.94-.1-12.22.13-24.16.13-36.38"/><g id="gw"><path id="path3430" class="cls-2" d="M106.93,359.37l-.11-.92a4.72,4.72,0,0,0-1.15.92h1.26"/><path id="path3432" class="cls-2" d="M107.63,354.44q1.58-.78-.46-1.15l.46,1.15"/><path id="path3434" class="cls-2" d="M108.66,365.69a6,6,0,0,1,1.37-.81c-.92-1.94-3.25-.65-1.37.81"/><path id="path3436" class="cls-2" d="M110.61,353.75a12.55,12.55,0,0,0-1.72.23c.11,1.68,2.2,1.41,1.72-.23"/><path id="path3438" class="cls-2" d="M110.5,358.8l-.46,1.15c1,.48,1.57-.08,1.72-1-.42,0-.84-.06-1.26-.12"/><path id="path3440" class="cls-2" d="M113.48,363.74a3.58,3.58,0,0,0,1.26-2,1.79,1.79,0,0,0-1.26,2"/><path id="path3442" class="cls-2" d="M119.11,364q.51-1.66-1.15-.92l1.15.92"/><path id="path3444" class="cls-1" d="M102.35,347.78c1.11-.77,2.56-.19,3.76-.72a10.28,10.28,0,0,1,3.93-1.34c3.07-.08,5.86.73,8.43-1.49,2.26-2,5.11-1.38,7.84-1.38h12.43c-.35,1.61,1.44,3.48,0,4.89-.78.77-2.92.59-3.23,1.76-.44,1.66,5.49,3,2.55,6.28-1.52,1.71-3.75.79-5.66,1.12s-3.93,1.72-5.78,2.28c-3.17,1-1.65,6.5-4.89,7.67-.78-3-1.2-3.38-3.89-4.71a12.38,12.38,0,0,1,.8-1.26c-2.31,1.73-.11-5.34,3.2-2.76-.8-2.25-2.83-.75-4,.23-1.13-2-1.33-3.37,1.15-4.25,2.11-.75,2.86,1.51,4.81,1.38a1.58,1.58,0,0,1-.69-2.64,2.36,2.36,0,0,0-2.18.29c-1.13.61-2.06-.14-3.23.05A6.16,6.16,0,0,0,115,354.9c-1.09.87-2.57.73-3.84,1,.08-2.08,1.83-2.75,3.22-3.9-2-.19-3.55,1.87-5.52,1.44-3.83-.83-1.37-4.22.46-5.46a22,22,0,0,0-2.18.34,9.63,9.63,0,0,1-1.26,1.26c-1.42.06-2.21-1.62-3.56-1.84"/></g><path id="gh" class="cls-1" d="M265.58,431.46c-.73-3.91-1-7,.72-10.73,1.47-3.17.57-4.28,1.75-7.46.88-2.35,4-5.62,5-7.67,1.28-2.78.27-6.91-.58-9.76a23.23,23.23,0,0,0-1.29-2.93c-.5-1.14.24-2.34.33-3.51.2-2.68-1.1-4.57-.55-7.16.59-2.76-.55-5.73-1.06-8.42-.24-1.28-1.59-2.71-.8-4.06.62-1.06,1.48-2.56,1.09-3.85,6.69.6,12.84-.43,20,0,1.44.09,5.68-.27,6,.56.63,1.54,3.13-.91,4.44-1.86s5.14-.16,4.3,1.55c-1.28,2.6-1.57,5.19,2.17,8,3.09,2.33,1.35,1.38,1.88,3.78a5.19,5.19,0,0,1,.29,2.41,44.7,44.7,0,0,1-.49,5.27c-1.7-.26-1,.95-1.72,2,1,.18,1.76-1,2.73-.73,1.4.39,1.38,2.41,1.05,3.43-.63,2,.73,7.07-1.94,6.59.67,1.7,2.47,2.75,3.5,4.2,1.24,1.74.17,2.27-.55,3.89-.87,2,.8,4.55-.31,6.4-1.32,2.21-1.45,3.31.37,5.19.86.89-.1,3.13-.5,4.15-1,2.47-1.23,3.58.19,6,.89,1.56,2.78,2.93,4.2,4,.39.3,2.81,1.73,2.86,1.91.34,1.31-1.81,1.95-2.15,3.05-.46,1.5-1.5,2.78-3.3,2.58-1-.11-1.33-2.37-1.87-3-1.18-1.45-3.17-.89-4.73-1.56,1.25,1,3.31.39,4.65,1.37,2.65,1.95-1.41,3.18-2.72,3.41-5,.88-8.17,3.72-12.32,6.2-2.38,1.42-5,1.39-7.57,2.42-1.54.63-3.28,1-4.6,2a21.67,21.67,0,0,1-3.26,2.71,2.5,2.5,0,0,1-3.31-.56c-1.32-1.38-2.76-1.56-4.5-2.08s-3.29-.12-4.42-2c1.49,0,.75-.26,2.24-.21-.66-1.93,1.58-8.08-2.5-7,1.38-2.44-1.2-6.64-2.66-8.66"/><path id="ug" class="cls-1" d="M664.13,533.75c.78-2.16.53-5.07.85-7.35.4-2.88.67-5.74,1-8.64.46-3.53,2.5-5.55,2.84-7.39.21-1.12-.22-2.26,0-3.39.34-1.78,2-1.32,2.84-2.61,2.48-3.92,6.44-6.71,9.79-10.17a16.39,16.39,0,0,0,3.59-5.5c.45-1.49-2.32-3.06-3.4-3.63-.86-.46-2.16.94-2.8-.47-.51-1.12-.1-2.66.14-3.79.71-3.48-.59-6.29,1.17-9.48.51-.93-.75-1.18-.43-2.16a6.22,6.22,0,0,1,2.09-2.58,3.53,3.53,0,0,1,2.82-1.05c.89.16,2.56,2,3.43,1.61,1.12-.51,2.77-2.57,4-1s1.63,2.29,3.87,3.1c-1.26-2.09,2.21-2.88,3.84-3.11,2-.28,4.32-1.9,6.29-1.67,2.7.31,3.54,2.7,6.49.65,2.12-1.47,3.59-3.67,5.2-5.63.94,1.27,1.94,3.07,1.37,4.71,1.9-.19.64,1.19,2.43,1.73s2.56.91,1.79,3.29c-1,3.09,2.08,6.41,3.69,10.07.32.72,2.17,3.14,2.14,3.76-.08,1.32,1.48,3.28,1.81,4.57a13.23,13.23,0,0,1-1,7.68c-.84,1.95-2.46,2.23-2.05,4.5.21,1.18-1.69,1.91-2.56,2.35-1.7.86-1.77,3.15-2.79,4.85-.76,1.27-2,2-2.55,3.26-.72,1.77-1.37,3.08-2.19,4.8-.79-.05-3.71.92-3.24-1.63-1.85.7-1.27,1.23-2,1.35-2.26.35-2.29-1-.6-.9-.44-.91-2-2-1.44-2.7-1.26.46-.43.13-2.16.78l.55.92c-1.51.4-.35,1.88-2.26,1.78.24,3-4.22,1.44-4.73,1.54-.09.05.24-2.66-.09-2.21-2.16,5-2.95,2.36-3.35,2.62.08,1.07-.73,1.14-2.59,1.32-.88,1.24-2.94,1.21-2.77,1.65,1.63,4.16-1.8,4.85-2.33,7.78-.46,2.53.46,2.66.75,4.33-11.46,0,2.49.5-8.94-.36-3.95-.29-8.58.51-10.89,3.37-.8,1-1.93,3.78-3.33,2.86-.37-.24-.59-1.58-1.24-1.53a9.39,9.39,0,0,0-3.42,1.7c.26-1,1.73-2.84.42-4"/><g id="mz"><path id="path3382" class="cls-2" d="M729.34,818.32a9.28,9.28,0,0,0,.57-3.57,4.66,4.66,0,0,0-.57,3.57"/><path id="path3384" class="cls-2" d="M741.39,778.25q1.44-1.37-.69-1.15l.69,1.15"/><path id="path3462" class="cls-1" d="M669.53,724.64q13.24-5,26.57-9.73c2-.71,3.85-1.65,5.82-2.41.67-.26,2.35-1.35,3.1-1.12l6.64,7.42c.07-1.49,3.26-1,4.76-1.39,1.29-.36,3.24-1.57,4.3-.2,2,2.54,2,8.7,1,11.52-1.29,3.57-4.3,6.78-2.39,10.45.45.87.19,1.91.72,2.74s1.65,1.45,2.25,2.38a23.74,23.74,0,0,0,4.6,5c1.57,1.34,1.49,1.59.41,3.35s2.58,2.59,2.83.06a9.6,9.6,0,0,0-1.89-6.65c2.24-1.63,1.08-5,4.37-5.7,4.46-.93,4.86-2.87,4.87-7.38,0-1.64-.28-3.31-.19-4.94.16-2.66,1.56-5.6.41-8.21s-3.53-5.08-5.07-7.52a47.38,47.38,0,0,0-4.63-6.7c-1.33-1.46-.83-.13-2-1.47-.35-1.15.25-3.39-.48-5.61-1-2.91.75-4.67.37-6-2.21-7.46-.87-5.63-1-6.57.86-2,3.74-1.59,3-8.55,2.39.22,4.56.75,7.36-.06,1.58-.46,3.07-2.41,4.8-1.29,1.2.77,1.78,2.26,3,2.93a11.84,11.84,0,0,0,5.28.42c1.78-.46,3.07-3.46,5.08-1.27,3.74,4.06,8.23-.75,10-3.73,1-1.65,2.78-1.69,4.33-.7,2.54,1.61,3.15,1.59,5.56-.1,2-1.41,3.59-2.4,6.21-1.89,1.51.3,4.42-2.6,5.83-3.24a38.28,38.28,0,0,0,7.49-4.89c2.92-2.26,4.83,1.52,2.29,2.73.39.18.77.37,1.15.57-1.16,1.5-.5,3.18-1.15,4.81-.35.88-2.56,2-1.26,2.95,1.08.77.83,4.88,1,6.47a19.59,19.59,0,0,1,.1,3.6c-.16,1.82-.73,1.36-.22,3a3.34,3.34,0,0,1-.13,1.76c-.24,1.11.46,1.45.75,2.41a5.38,5.38,0,0,1-1.05,4.51c3.2.45-1,7.47.29,7.87,2.19.7.05,8,.75,9.7,2.41-1.43-.35,3.23.35,4.35.19-2,2.24-1.68,1.89.33-.38,2.18.14,3.73-2.13,5,.41.32.84.63,1.28.91-2.63-.63-.36.33-1.12,1.24-.48.57-1.22.79-1.53,1.52,2.54-.9.35,3.12,0,3.92-1.27,2.69-4,4.18-5.28,6.84s-3.41,4.19-4.85,6.7c-1.1,1.93-8.58,4.53-8.31,6.62.12,1-5.65,2-6.77,2.65a13.49,13.49,0,0,1-3.24,1.43c-1.81.53-1.5-.16-2.81,1.05-1.89,1.75-4.53,2.57-6.78,3.74s-5.79,6.6-8.3,4.46c4.68,5.14-6.69,7.11-5.63,12.29a1.63,1.63,0,0,1-1.83-1.39c.23,1.82-1.5,4.13-1.26,1.61-2.19,1.9-4.83,3.2-6.61,5.54a46.86,46.86,0,0,1-4.9,5.84c-.77.73-3.82,3.95-4.91,2.62-.71-.86-1.61-3.8-3.21-2.87,2.76-.17,1.79,3.3,2.34,4.15a3.33,3.33,0,0,1,.1,2.91,1.13,1.13,0,0,1-1,.76,3.26,3.26,0,0,1,.35,2.1c-.3,3.62.89,2.62,2.76,5a7,7,0,0,1,1.32,4.58c0,.64-.52,5.64.4,2.55-.7,2.7,1.1,5.62,1.37,8.37.17,1.65.76,3.38.48,5-.23,1.4-.84,3,.67,3.92.27-1.77.19-3.36,1.39-4.83,0,.54,0,4.41.57,1.16-.32,1.87-.79,3.71-1,5.61-.15,1.7,1.05,3.21.84,4.86-.59,4.51-3.83,8.85-3.1,13.64-.42-2.62,1.5.08,1.61-2.18,1.73,2.91-1.62,7.26-3.42,9.32-3,3.39-7.46,4.95-11.59,6.4-4.68,1.65-9.4,3.37-13.58,6.09-1.89,1.23-3.86,2.31-4.91,4.41-.9,1.8-1.36,3.89-3.7,4.2,1.57,0,4.07,5.56,5.39,2.18-.28,2.86,1.22,10.27-1.74,10.07l-7.13-.28c.11-2.35-1.35-5-1-6.82.31-1.53-.43-3-1.46-4.37-.76-1-.59-3.44.21-5.36.45-1.09.39-5,.44-6.13.11-2.75.09-5.5.3-8.24.19-2.47-.38-4.12-.78-6.49-.6-3.54-3-6.43-3.75-9.88-.35-1.66-.09-3.42-.38-5.13a68,68,0,0,0-1.53-7c-.42-1.5-1.09-1.06-.25-2.17.85-.67,3.21-3.75,4.21-4.77,1.49-1.52,8.4-11.23,10.21-9.91-1.83-2.36,0-3.73.57-6.09.35-1.45-1.05-3.47.54-4.42,2.22-1.32,2.79-3.12,4-5.4a19.4,19.4,0,0,0,1.19-2.85c.6-1.66.14-2.93.22-4.55l-1.15.46c-.84-1.67-1.43-3.17-1.11-4.1.4-1.12,1.83-2.05,1.29-3.56-.46-1.29-2.32-.83-1.8-2.91.39-1.55,3.11-1.8,2.89-3.69-.38-3.24,1.64-2,1.44-4.15-.16-1.76-1.15-3.43-.82-5.2.23-1.25,1.05-2.63.74-3.87-.61-2.47-.41-4.15-.35-6.8a7.79,7.79,0,0,0-.68-2.33c-.35-1.22.84-3.28,1-4.49-1.68.47-2.54.46-3.43-1.2s-5.68-1.7-6.94-2.42c-3.87-2.23-7.58-4.55-11.74-5.73-1.33-.38-5.5-.26-7-.6-2.36-.56-1.41-4.39-1.63-6.15-.31-2.55-2.24-4.83-2-7.43"/><path id="path3466" class="cls-2" d="M784.66,743l1.15-.8a5.44,5.44,0,0,1-.33,1.95l-.81-1.15"/></g><g id="mr"><path id="path3878" class="cls-2" d="M109.11,247.34a6,6,0,0,0,1-3.56c-.93.88-1.72,2.27-1,3.56"/><path id="path3882" class="cls-1" d="M102.35,231.27a9.78,9.78,0,0,1,.74-5.82,3.24,3.24,0,0,1,2.61-2.1l44.46-.05c2.26-1.19.71-11,.56-14.8s-.66-6.28,2.39-9.16c2.55-2.41,2.47-1.8,10.57-5.11l1.78-34.81,39.67-.46.53-17.65c15.1,10.16,29.92,20.63,44.49,31.54H229.07l8.65,116.24c.71,1.9,2.67,2.72,2.84,3.17,1.16,3-.37,3.85-.48,6.13-.13,2.67-.39,5.07-1.17,5.36l-25.33,0c-14.39.5-20.55,2.47-21.82-1.79-.61,3.85-6.32,4.48-9.13,3.36-4.44-1.77-7.28-1-9.1,4a24.3,24.3,0,0,0-4.08-4.65c-1.83-1.76-3.59-2.71-4.56-2.17-3.65,2,1.44,12.2-7.52,11.55a11,11,0,0,1-3.07-3c-.81-1.54-1.74-1.05-3.28-2.37s-1.56-3.76-2.93-4.68c-3.68-2.45-2.22-2.48-2.56-4.14-.42-2-2.5-4.64-3.54-4.66-5.41-.08-5.8-4.47-9.31-6.16a12.9,12.9,0,0,0-5.7-1.38c-3.72-.12-5,3.51-13.54,2.88-1.8-.13-1.56-1.34-3.09-.9s-3.24,5.33-3.83,6.59c0-8.29,5.46-15.06,6.25-23.19.47-4.89-.2-9-.82-13.83-.22-1.73-.17-3.62-1.26-5.09-1-1.28-2.63-2.19-2.81-3.93a1.91,1.91,0,0,0,2.53-2,2.71,2.71,0,0,0-1.85,1.72c.31-1.66,1.66-2.83,2.39-4.3.47-.95-.21-2.46.34-3.09,2.5-2.86-1.32-7.92-2.27-10.75a6.89,6.89,0,0,0-.8,2.18c-2.53-1.92-1.93-5.88-4.48-7.81-.41,1.69-1,3.34-1.37,5"/></g><g id="ao"><path id="path3888" class="cls-1" d="M446.73,755.74c-.17-5.59,1.34-11.24.71-16.85-.1-.87-.74-1.7-.38-2.59.51-1.27,1.91-2,2.47-3.33a12.54,12.54,0,0,0,.65-3.32c.13-1,1.47-2.25,1.13-3.1-.71-1.83,1.78-6.74,2.18-8.79.57-2.93-.06-6.11,1.58-8.68,1.09-1.71.4-5.29,1.66-6.4a23.71,23.71,0,0,0,4.21-5.14c1.2-2.26.46-5.84,4.13-6.18,2.58-.23,2.8-2.21,4.08-4.44,3-5.28,3.88-13.47,2.48-19.33a20.15,20.15,0,0,0-3.23-6.91c-1.58-2.38-1.64-4.23-2.51-6.72-.4-1.14-1.41-2-1.56-3.2-.19-1.48,0-2.86-.63-4.26-1-2.07-2.91-4.75,0-6.24a2.79,2.79,0,0,0-1.26,2.42,13.19,13.19,0,0,1,2.25-3.29c.76-.75,2-.7,2.12-1.89a14.34,14.34,0,0,0-1.78-8.69c-1.68-3.06-2.55-6.27-3.85-9.49-.58-1.43-.53-3-.95-4.49-.62-2.19-2.64-3.66-3.76-5.57-.92-1.56-4.13-7-1.33-7.85a23.2,23.2,0,0,1,3.94-.58c1.84-.24,2.75-1.89,4.78-2.09,9.39-.9,18.88.17,28.33,0,3.58-.08,7.26-.37,10.84-.24,3.36.12,2.65,2.42,4.21,4.58.65.9.05,3.62.35,4.82a52.36,52.36,0,0,0,2.39,6.19c.62,1.6-.34,3,1,4.43a13.85,13.85,0,0,1,2.67,4.5c.53,1.14,3,6.52,4.63,6.07,1-.27,5.93.11,5.93.1-.26-.63,5.34-2.24,6.36-2a38.75,38.75,0,0,0,8.9,1c-.41-2,.79-4,.11-6,1.7.36,1.85-1.26,1.64-2.5-.3-1.71,1-3.82.44-5.32,3,0,5.91.06,8.86,0,.88,0,.37-1,1.08-1.28,1-.35,2.21,0,3.26,0-.66,3.29-2.45,5.17,1.73,5.17,3.65,0,7.34-.19,11-.11,3,.07,2.48,3.1,1.77,5.14a15.13,15.13,0,0,0-1,3.54c-.16,1.94,1.52,3.89,1.86,5.82.73,4.06-.78,8.56-1.1,12.64-.33,4.26,1.17,5.93,3.62,9.12,1.73,2.25,2.59,8.08,2.07,10.83-.18,1-1.1,1.59-1.44,2.51-.63,1.72,1.1,3.36.56,5.14,1.48,0,2.8-2.08,4-2.73,1-.56,4.17.28,5.32.6,2,.56,4.45-1.73,6.63-1.65s4.4,1.37,5.28-1.39c1,1.4,1.09,5.87.8,7.46-.4,2.2-.37,4.39-.91,6.57-.65,2.62,1,5,.33,7.57s-2.54,4.68-.33,7.11c-4.52,1.91-10.86,1-15.69,1-2.42,0-5.25-.6-7.66-.27-2.11.28-1.06,8.15-1.15,10.67-.26,6.7.11,11.43-.15,16.56s0,10.31-.13,15.43,3.49,6.63,6.51,10.36c3.21,4,6.45,8,10.8,10.81-7.11,1.38-14.25,2.59-21.27,4.41-2.79.73-3.87,0-6.52-.28a7.62,7.62,0,0,0-3.27.79c-1.75.58-3.42-.27-5.09-.73-6-1.63-12.32-1-18.37-1.92-2.6-.4-3.92-2.65-5.15-4.67-1.1-1.8-4.62-1.06-6.46-1-14.84.69-30.09,0-45,0-3.06,0-3.39-.19-6-2.26s-4.75-4.67-8.33-3.09c-2.64,1.17-5.37,4.35-8.38,2.92-3.69-1.76-4.22.06-7,.57"/><path id="path3890" class="cls-1" d="M450.28,586.89c2.06-1.62,4.38-5.76,7.09-6.3,1.21-.24,1.1-2.19,2.43-2.18,1.49,0,2.45,2.38,3.44,3.21a44.16,44.16,0,0,0-6.68,5.21c-1,1-.73,1-.26,2.2.65,1.66.29,3.61.14,5.33-.21,2.32-4.57,4.21-4.6,1.17,0-1.68.89-2.07.37-3.93-.38-1.36-2.46-3.66-.78-4.92l-1.15.22"/></g><path id="sd" class="cls-1" d="M722.31,368.34c1.38-1.74,3,2.1,2.92,4,1-1.06,4-5.11,3.58-6.78a8.93,8.93,0,0,1-.26-4.58c.73-2.71,0-6.49,2.46-8s3.34-6.61,4.78-8.9,3.37-.67,5.65-1c1.52-.21.84-5.27.87-6.33.07-3,2.25-5.31,2.75-8.18a40.32,40.32,0,0,0,.58-11.06c-.32-2.81-1.57-6.75-.44-9.48,1.45-3.49,1.85-7.12,3.33-10.63a27,27,0,0,0,1.6-4.45c.35-1.61-.88-2.72-.58-4.31s1.18-4.42,2.67-5.3c1.08-.64,4.14-.11,4.55-1.56.81-2.83.46-3.06,3.59-4.24,1.73-.65,5-2.26,6.14-3.69.81-1,2.63-3.8,2.46-5.17-.27-2.14-3.81-1.49-3.91-3.45-1.49,1.34-5.59-5.65-7.83-6-3.87-.66-5.05-8.1-5.22-11.34-.24-4.62-1.62-8.81-1-13.35a11.78,11.78,0,0,0-1.16-6c-1.11-2.52,1-3.78,1.59-1.29-.15-3.27-3.88-5.29-4.78-8.33-1.09-3.66.48-5.11-2.9-7.47-2.55-1.78-4.15-5.07-6.81-6.46-3-1.55-5.42-2.79-6.23-6.32-1.08,1.08-3.94,5.35-5.65,4.45-2.25-1.18-3,1.79-3.48,3.16-.93,2.63-1.76,4.1-4.64,4.59s-3.47,1.17-4.06,4c-1.29,6.24-7.47,1.47-10.44-.14-2.57-1.4-7-.4-9.86-.29a46,46,0,0,1-10.32-.29c.29-1-.46-5.42-1.86-2.65-1.48,2.95-4.14,2.65-7.1,2.65H604.46c.31,9.16.44,18.41.58,27.57H592.63c1,19.72.81,39.42.81,59.16-2-.61-3.24-1.31-5.21-.29-1.63.85-3.13-.1-4.78.72-3.86,1.91.24,4.83-2.17,7.9-1.93,2.46-2.27,5.12-5.07,6.61-1.76.93-.07,5.28,1,6.32-4,3.21-6.5,4.21-3.62,9.62,1.1,2.06-.35,3-2,4.16s-2.09,2.94-2.9,4.88c1.56,4.21,4.48.2,7.1,1.72,1.56.9-.71,2.37,0,3.59.87,1.49.12,5.22-.36,6.92.41-.21,2-2.16,2.39-2.33,1.25,2-1,4.29,0,6.32s3.62,2.26,4.49,3.73c1.29,2.16-1.39,4.08-.44,6.17a19.33,19.33,0,0,0,4.35,5.46c3,3,4.6,5.11,4.62,9.35l-1,4.75,9.51-3.91,9.11-15.65,9-1.22,5.35,11,2.88,1.63,5.35-1.63,9.87-.41,3.29,2.44,6.58.81,2.88-4.89h4.52l.82-4.48,5.35-2.85,9.87,6.93,4.52-.41L688.25,362l4.94-5.3-3.7-11,12.34-3.26v17.93l9.87,7.74v7.74l7.29,6.35c2.89-4.22,1.51-11.59,3.32-13.88Z"/><path id="ss" class="cls-1" d="M719.19,381.84a22.61,22.61,0,0,0-.73,8.84c.28,3.65,1.92,10.42-3.65,11-1.7.18-3.6-.51-5.4-.43-2.75.12-1.65,1.36-2,3.62-.32,1.84-3.75,3.47-.73,5.22,2,1.15,4.57-.15,6.6,1a10.41,10.41,0,0,1,4.5,5.08,13.45,13.45,0,0,0,4.23,5.22c1.66,1.26,2.32,3,4.09,4.06,2.06,1.24,1.51,4.2,2.48,6.09,1.16,2.25,1.29,4.83,2.48,7.1a6.27,6.27,0,0,0,1.9,2.61c1,.59.59,1.91,1.46,2.75,1.36-1.74,2.49-1.35,4.09-1.17,1.81.2,1.28,1.54,1.75,2.76.54,1.38-.44,3.08-.44,4.49,0,1.77,1,2.77,2,4.06-5.68,0-12.72-1-18.25.29-3.49.82-6.46,6.42-8.76,9.13-.43.5-2.07,2.83-2.92,2.61-1.19-.31-2.72.25-3.79-.43s-1.37-1.11-2.63-.87c-2,.37-10.13,1.52-9.34,4.64-2.15-.78-2.45-1.54-3.65-3.19-.9-1.24-2.74.32-3.65.73-1.59.72-2.56-1.14-3.94-1.45-2.27-.51-4.54,2.46-5.26,4.2-.25-2-2-2.12-3.65-1.74,1.8-3.92-4.26-5-6.28-7.25-.9-1-1.68-2-2.48-3s-.69-2.45-1.9-3.48c-3.66-3.15-3.37,3.45-6.42,3.19s-3.58-3.63-6.42-.87c-2,1.92-3.22,2.71-5.69,1.16a6.78,6.78,0,0,1-2-2c-.66-1.33-2.32-.76-3.07-2.61a6.77,6.77,0,0,0-3.06-3.77c-1.14-.67-1.76-2.59-2.63-3.62-1.19-1.43-.58-3.25-.73-4.93-.22-2.55-3.08-3.09-4.82-4.35-2-1.43-4.54-1.85-4.53-4.35,0-1.06-1.36-1.56-1.9-2.32-1-1.37.8-2.46.29-3.77s-2.33-1.6-3.07-2.61c-1-1.4-.52-2.23-2.19-3.19-3.24-1.87-6.39-3.27-8.9-6.09-.89-1,.73-2.13.73-3.19,0-1.63-1-1.93-2.34-2.46s-1.36-1.93-2.34-2.9a6.15,6.15,0,0,0-3.5-1.3c-1.78-.28-5.69-.12-5.69-2.75,0-.75,1.15-2.72.58-3.33-1.57-1.69-6.5-1.07-8.61-1.45.44-1.14,1.22-2.34.88-3.62-.42.15-.89.43-1.31.58-.37-1.91.63-2.29,1.61-3.62l-.16-2.92,8.87-4.47,9.18-15.8,9.11-1.23,5.39,11.11,2.9,1.65,5.38-1.65,9.94-.41,3.32,2.47,6.63.82,2.9-4.94h4.56l.83-4.53,5.38-2.88,9.94,7,4.56-.41L688.39,362l5-5.35-3.73-11.11,12.43-3.29v18.1l9.94,7.82V376l2.9,1.65Z"/><path id="ne" class="cls-1" d="M307.7,318.74c-1.69-2,.28-5.63.11-7.92,2,.71,4.54.51,6.67.53,2.51,0,3.15-1.26,4.64-3,1.79-2.08,3.88-1.56,6.44-1.76,3.27-.26,6.52-.55,9.8-.62a33.54,33.54,0,0,1,4.6.15c3,.35.18-.93,1.6-1.29,2.27-.58,5.24,2.48,6.23-.11.87-2.28,3.54-2.59,4.44-4.65s.89-4.38,2.05-6.44c2.44-4.3,1.89-9.05,2.14-14,.35-7,.24-14,.2-21,0-4.35.36-5.49,4.68-6.49,3.83-.89,7.79-1.1,11.61-2,4.51-1.11,7.47-5.54,10.67-8.64,4.64-4.51,9.08-9.42,14.19-13.4,10.42-8.11,22-15.46,33.11-22.55,5.24-3.34,10.28-7,15.52-10.35,4.91-3.13,11.49.08,16.71,1.51,4.57,1.25,8.24,4.22,11.36,7.69,1.35,1.5,1.76,1.57,3.41.44,2.33-1.6,4.84-2.89,7.27-4.32a164.72,164.72,0,0,1,2.58,18.21c.19,2.45,1.63,4.14,2.89,6.14a20.91,20.91,0,0,1,1.87,3.6c.46,1.18-.84,2.14.18,3.31,1.31,1.5,3.52,2.78,4.07,4.82.68,2.49-2.15,5.06-2.38,7.54-.69,7.42-1.87,14.82-1.87,22.29,0,3.22-.33,6.43-.42,9.64-.07,2.59.28,5.75-.59,8.23-.75,2.14-2.88,4-4.26,5.71-2.24,2.83-4.67,5.5-6.94,8.3a56.39,56.39,0,0,0-9,15.44,12.9,12.9,0,0,1-2,3.75c-.44.53-1.35.38-1.68,1-1,2,1.46,7.76,1.79,10-1.1,0-2.51-.28-3.5.37s-.87,1.42-2.06,1.95a18.4,18.4,0,0,0-6.59,4.37c-3.1,3.27-4.95,1.85-8.72.32-4.41-1.79-8.37-2-13.08-2.15-4-.11-7.5.63-10.56,3.4a17.62,17.62,0,0,0-2.6,3.16c-1.37,2-2.2.72-4.18.9-4.64.43-6.63-1.92-10.51-3.47-2.83-1.13-6.07-5.13-9.49-3.32-1.29.68-2.27,1.81-3.53,2.55-1,.56-2.5-.29-2.93.65-1.79,3.86-4.91-.92-5.64-2.53-1.72-3.79-4.36-5.24-8.2-5.93-2.19-.39-3.84-2.24-6.08-2.45-2-.18-2.77,1.87-4.87,1.83-3.8-.07-7.28-.39-10.06,2.77-.91,1-1.87,1.54-2,3-.21,2.36-.28,4.35-1.69,6.34-1.91,2.69-4.24,4.46-4.11,8,0,.75-.38,8.37-.85,8.11-2.26-1.28-7.14-9.89-9.51-9.6-.75.09-1.06,1-1.72,1.25-.88.33-2.83.09-3.42,1-.3.46,1,4.28.12,4.25s-2.66-3.42-3-4c-1.24-2-.28-2.46,1.42-3.14-.54-1.14-.65-2.71-1.72-3.53-1.93-1.48-3.12,1.6-5.12,1.25-3.73-.66-9.81-6.55-8.08-10.45a2.86,2.86,0,0,0,3.2.23c-.56-.47-7.79-5.55-8-5.06.53-1.08-2.15-3.1-2.5-4.31-.6-2.08-.12-4-2.09-5.45"/><path id="zm" class="cls-1" d="M570.24,740.84c0-13,0-26.14.21-39.18,0-1.4-.49-4.28,1.46-4.7,1.7-.37,3.8.11,5.54.16,5.8.15,12,1.16,17.58-.7-1.83-2-.9-3.82,0-6,1-2.65-.36-4.72-.22-7.36.26-4.89,2.35-10.49.37-15.35,1.83,0,1.65,2,3.55,2.42,2.11.43,1.17,3.56.35,4.82,2.53.56,2.3.49,4.77-.58a23.16,23.16,0,0,1,7.75-1.84,6.68,6.68,0,0,0,1,6.66c1.15,1.15,3,.44,4.45,1.09,2.07.95,3.57,1.85,5.92,1.89,3.8.05,7.32,2.56,8.67-2.28,1.46-5.27,3,.62,4.85,2.22,1.25,1.09,1.08,2.85,2,4.17,1.45,2.12,3,.11,4.3.94,1.91,1.26,2.65,2.4,4.72,2.36,2.44,0,1.87,3.94,3.49,5.45,2.38,2.21,2.83,4.06,4.19,6.88,1.71,3.56,6.69-3.34,8.57-1-.82.65-.85,1.74.19,2.16,1.84.73,1.21-3,1.23-3.79.12-4.62.28-9.25.28-13.87-.83.31-1.75.4-2.6.66-1.46.45-1,1.71-1.66,2.7-1.09,1.72-5.92-2.23-7-3.38-3.35-3.5-7.19-6.36-5.22-12.16,1.07-3.14,2-5.74,2.85-8.4.61-1.84-.62-4.91-.45-7,.27-3.38,1.95-10.52-2.58-11.92,1.46-3.85,9.59-6,6.48-11.13,6.71-1.43,12.67-1.85,20.31-3.55,0,1.29-1.6,2.94-1.55,3.27.1.69,2.27-.28,1.18,1.52.23.43,1.05-1.88,3.9,1s4,1,3.72-.47c3.27,0,4.1,1.19,5.46,3.59.59,1,1.26.62,2.16.3,1.16-.42,1.57,1.52,2.52,1.92,1.93.81,5.48.54,6.11,2.82.19.68,1.48.43,2.27.68a7.18,7.18,0,0,1,3,1.4,2,2,0,0,1,.23,2c-.63,1.92,3.79,1.19,4.57,4.06.26,1-.5,1.52-.35,2.41.22,1.38,1.27,1.87,2.22,2.72s1.14,3.23,1.49,4.26c.66,1.92-1.59,3.75-3.45,4.32-2,.62-.85,2.18-.36,3.72.78,2.42-.65,3.7-.73,6-.11,3.35-1.65,10.51,2.55,11.78-1.71,1.83-6.94,2.7-6.9,5.77,0,2,.53,2.76.12,5-.6,3.31-2.73,5.25-3.52,7.57-.45,1.33,1,2.4,2.07,3.12,1.47,1,2.16.27,2.74,1.29-11.36,5.3-23.52,8.51-35.08,13.22-1.48,1,2.53,6.3,1.78,9-1.11.13-4.17.59-5.24.16-2.1-.84-4.6.46-6.58,1.13-2.82,1-6.47,2.62-7.08,5.9-.26,1.4.09,2.92-.55,4.24-.9,1.88-3.39,2.11-5.11,2.79-3,1.18-7,3.62-8.67,6.43s-8.26,15.37-13.21,12.41a16.54,16.54,0,0,0-3.43-1.63c-1.75-.56-3.5,1.76-4.88,1-1.09-.6-1.51-2.63-2.89-2.3-.31.07-3.82,1-5.57-.69-2-1.87-2.88-3.16-4.45-3.58s-2.81,1.41-5.86-.4c-2.42-.37-4.1.91-6.48,1.09-1.23.1-3.58,1-4.37.74-4.14-1.59-6.9-6.33-9.83-9.59-1.6-1.78-2.83-3.23-4.56-4.88s-2.08-3.1-2.61-5.41"/><path id="et" class="cls-1" d="M705,409c.23-1.86,2-2.84,2-4.73,0-3.23,2.29-3.54,5-3.08,2.42.41,4.51,1.18,6.31-1.49,1.24-1.84.43-5.05.18-7.08-.41-3.38-.9-7,.36-10.29.5-1.28,1.16-2.48,1.62-3.77.69-1.89-.07-3.16-.1-5a8.16,8.16,0,0,1,2.19-5.17c1.4-1.62,3.48.31,3.43,2.07.81-.89,4-5.8,2.42-7.35-.91-.88.56-3,.83-3.83.53-1.74-.64-3.94.91-5.36,2.48-2.27,3.47-5.26,5-8.32.65-1.29,1-2.64,2.63-2.72.66,0,3.76.31,4-.48.86-2.38.66-5.35,1-7.85a14.16,14.16,0,0,1,1.38-3.84c1.06-2.35.8-4.54,1.27-7,.9-4.61,2.84-2.92,6.33-3,1.35,0,1.63-2.76,3.52-1.66,1.48.85,2.3,2.83,3.24,4.16a87.67,87.67,0,0,0,3.78-10.79,6.84,6.84,0,0,0,2.07,2.41c1,.55,2.12.11,2.72,1.31,1.18,2.36,2.63,2.64,5.1,2.19a5.33,5.33,0,0,0,2.59-1c.43-.37.8-1.79,1.25-1.91.83-.24,2.18,2.61,2.35,3.23,2.35-3,6.32.48,8.74-.17,3.31-.88,6.72,2.65,9.54,3.85,3.78,1.6,4.88,6.49,8,9,1.85,1.48,4.29,2.66,5.43,4.84,1,2,1.54,3.66,3.41,5.09,3.13,2.4,4.48,4.24,2.41,7.88-2.45,4.3-5.8,6.75-5,12,.39,2.61-.64,5.79,3.1,5.53,2.18-.15,4.35-1.2,6.47-1.73,1.71-.44,2.37,1.07,4,.54-.17,2.73-3.32,5-1.8,8.19,1.82,3.81,3.48,4.78,5.84,8.17.79,1.13,2.19,4.89,3.08,5.92s1.67.71,2.7,1.56c1.6,1.3,4.06,4.07,6.09,4.8,8.14,2.93,15.46,6,23.58,9,3.85,1.42,7,3.11,10.94,4,3.69.87,8.43.26,12.16.26L853,447.82c-2.09,2.44-3.74,2.67-6.69,2.27-4.86-.66-11.66-.93-18,4.89-1.68,1.54-2.25,3.45-4.69,3.94-2.25.45-4.62.37-6.71,1.51-2.25,1.23-2.1,3.34-5.05,2.66-2.48-.57-6,1.47-8.14-.95-.93-1-1.68-2.63-3.22-2.81s-3.5.91-4.79,1.51c-2,.93-5.42,2.73-6.72,4.65-1.4,2.07-2.41,3.64-3.37,5.23-1.54-1.48-5-1.71-7-1.52-1.54.14-2.63-1.1-4-1.39s-3,.36-4.49.23c-5.87-.55-.92-1.3-16.37-10.6-2.63-1.58-6.47.22-9.7-.92-1.5-.53-3.77-3.47-4.44-4.83-.93-1.89.66-4.39.05-6.46-.55-1.87-4.39-3-5.67-1.37a30.32,30.32,0,0,1-2.51-4c-1.49-2.3-2-5.4-3-8-.75-1.92-1.13-4.08-2.16-5.88a3.68,3.68,0,0,0-1.85-1.53c-.89-.45-.92-1.33-1.58-1.92-.41-.26-.57-.49-1.06-.55-1.26-.35-1.39-1.71-2.06-2.62-1.5-2-2.52-4.52-4.52-6.16a10,10,0,0,0-5.09-2.24c-1.75-.21-4.16-.22-5.09-2"/><path id="eh" class="cls-1" d="M102.35,231.27c-1.89-3.33.91-9,1.49-12.42a17.94,17.94,0,0,1,2.26-6.63c1.53-2.49,4.33-2.5,5.27-5.62.48-1.6.45-4.06,2-5,.9-.54.37-2.35,1.07-3.38,1.12-1.65,5.65-7.28,4.39-9.43a6.32,6.32,0,0,0-2.06,2.18c2-4.35,7-7.56,10.28-10.91,4.38-4.48,3.54-9.1,5.67-14.59,1.75-4.49,3.1-9.44,7.46-11.93,4.81-2.74,7.42-5,9.41-10.27,1.27-3.37,3.66-8.15,2.83-7.17l53.41-.43-.76,23.27-39.63.46-1.82,34.81c-2.36,1.7-5.71,1.89-8.17,3.42-3.71,2.3-5.2,4.77-4.91,9.15.17,2.54,2.12,15.8-.58,16.57H105.92c-3.38,0-3.92,5.53-3.57,7.92"/><path id="td" class="cls-1" d="M467.5,318.85c.43-1.07,1.49-.83,2-1.7s.63-1.85,1.4-2.43c1-.72,1.14-3.47,1.56-4.56,2.24-5.9,7.28-11.28,11.3-16,3.68-4.35,7.86-8,8.14-13.9.35-7.36.5-14.73,1-22.09.4-5.68.11-13.15,2.93-18.18,1.62-2.9.55-4.25-1.41-6.52-.56-.64-1.26-1.15-1.83-1.78-1-1.1.3-2.09-.14-3.22-1-2.62-3.16-4.65-4.37-7.14-1-2.11-.37-4.67-.6-6.94-.38-3.74-1.5-7.35-2.08-11.06-.07-.43-.78-2-.19-2.25l13.12-6.23,95,53.76,1,52.59c-3.14-1-3.42-.58-6.71-.07-2.18.34-5,0-5.69,2-.51,1.49.92,4.31-.16,5.75s-2.58,6-4.73,6.73c-2.45.85-1.45,5.11.3,6.79-4,3.18-6.56,5.18-3.48,9.61,2.09,3-2.78,4.27-4.11,6.79-.92,1.73-1.28,2.33.12,3.73,1.19,1.19,3.22-.09,4.5-.07,1.61,0,3,.76,1.92,2-1.5,1.83,1.55,4,.37,7.2.41-.21.83-.4,1.26-.57.92,1.48-.12,3.16-.11,4.71,0,1.77.23,1.79,1.34,3s3.45.51,3.62,3.54c.07,1.35-1.23,3.8-.84,5.34-.69-1.17-4-2.29-5.45-1.53-.86.45-2.07.83-2.64,1.67-.7,1-.85.38-1.64,1.25-1.26,1.4-4.29,1.05-4.73,3.24-.18.9.54,1.66.25,2.59-1,3.11-3.78,4.4-6,6.45-1.8,1.64-2.72,3.95-4.34,5.74-2.86,3.18-4.85,3.9-8.9,5.4-2.3.86-8,1.23-10.46,1-.83-.08-5.9,1.11-4.09,2.48.79.59,2.88,1,2.41,2.4a15.62,15.62,0,0,1-3.69,5.07c-1,.91-1.85,3.19-3.1,3.49-2.36.59-5.22.13-7.65.35a17.63,17.63,0,0,0-8.35,2.78c-1.51.93-4.35,1.75-5.05,3.56-1.09-1.56-2.6-2.66-3.09-4.59-1,.36-1.48,1.68-2,2.53-.34.6-2.3.76-3,1-3.3,1.45-4.43,1.19-7.94,1.25,1.84-2.32-.22-3.17-.89-5.35-.91-3-1.69-6.27-3.64-8.75-1.66-2.11-4-3.58-6-5.26s-3.19-3.69-4.85-5.67c-1.13-1.35-4-3.89-2.63-5.84s2-3.39,4.61-3.27c2.87.13,5.69,1.3,8.54.33,1.25-.43,2.36.2,3.48.65s2.49-.54,3.46-.82c-5.7-3.17-8.37-10.81-8.06-17,.07-1.43.79-2.57.93-3.92a32,32,0,0,0-.25-4.22c0-1.06.19-2.8-.43-3.74-.49-.74-1.84-.19-1.76-1.43a22.92,22.92,0,0,0-.88-5.45c-.24-1.16-1.89-1.34-2.72-1.85-2.65-1.64.72-4.12-4.52-4.9-1.25-.19-.88.79-2.23-.24a58.93,58.93,0,0,1-5-7.69c-1.74-3.19-1.48-7.11-2.17-10.57"/><g id="gn"><path id="path5380" class="cls-2" d="M122.44,366.61c-.69.87-.62,2.31.69,2.53a2,2,0,0,1,.57-2.41l-1.26-.11"/><path id="path5400" class="cls-1" d="M122.66,366.38c1.59-2,1.43-5.22,3.45-6.91,1.36-1.14,4-1.38,5.64-2.23s3.31.18,5-.71a3.06,3.06,0,0,0,1.87-2.94c-.23-1.94-3.67-2.71-3.11-4.21.5-1.35,3.24-.95,3.6-2.31.41-1.53-.74-3.72-.32-4.2l5.76,0c.83.22,1.76.85,2.37.9.45.14-.57,2.74,1.2,1.67,1.21-.73,3.71,1,4.38,1.48.09.07,2.67.86,2.6.87,1.68-.16,2.87-1.44,4.69-1.24,2.65.29,5.29-.86,7.2,0-.93,1.85-2.3,3.22.19,5.32,1.42,1.19,3.53-3.36,5.18-2.73,4,1.51,1.41,6.29,4.9,2.31,4.48-5.09,7.21.74,8.9.31,1-.26,1.68-1.21,2.6-2,.75-.63,2.59-.81,2.95-1.4.69-1.16-2.12-3.89,1.77-2.89.83.21,2.84,1.17,2.69,2.74a10.08,10.08,0,0,0,1,3.54c1.85,1.75-.36,6.35,1.93,5.12.29,2.29,4.54,2.4,4.1,5.13-1,0-1.42,0-2.07.77a10.41,10.41,0,0,0-1.8,3.86c1.19-.19,1.88-1.17,3.24-1.32,2.21-.24,1.55,2.6,1.5,4.17,0,1.16-.55,3.06,1.59,4.25.4.22,2.19,1.4,2.47,2.44.37,1.41-1,2.09-2.07,2.9-.7.52-.71,2.9-.7,4,0,2,.72,6.48,3.51,4.7-.63,3.16-.29,2.7,1.5,4.82-2.16.32-2.16,2.11-2.76,3.79,3.26.54,3,3.34,3.78,5.85-1.68-.58-6.61-2.51-7.22-.87-.8,2.15,2.42,4.29,3.44,5.81-1.22-.63-2.08,1.71-2.07,1.79.26,1.27.7.86.46,1.64s-1.64,2.83-1.63,3c-.34-.29-2.08-1.14-3-.3-.51.45.13-.9-1.41-1.67-1.5-.53-2,2.67-2.35,3.4-1.06,2.12-1.85,2.56-4.2,3.5-.13-2.68-2.32-3.1-4.48-2.29a18.64,18.64,0,0,0,1-5.41c0-.71-.21-4.59-.43-4.23s-.43,1-.46-1.34c0-.36-.83-1.63-.07-2.64-3.69-4.23-4-2-4.54-2.25-1.24,1-1.63.36-3.34.18a5.74,5.74,0,0,0-3.43.77c-.61.37-3.18,1.72-3.44,2.3-.25-2.32,2.92-5.31,2.4-6-2-2.74,1.07-3.57-2.08-5.58-.95-.61.33-1.65-.14-2.5-3.36-6.17-4.63-10.95-12.18-9.81-2,.31-2.53.94-4.32,1.35-3.15.72-4.13-.89-5.48,2.19-1.08,2.47-2,5.33-3.52,6-1.4.63-1.5,1.14-2.15,2.53-.77,1.65-2.74.32-3.88,1.36a1.68,1.68,0,0,1,1.61-2,3.77,3.77,0,0,0-.92-1.15q-.43.55-.8,1.15a14.35,14.35,0,0,1-.11-2.3l-1.26.11c.36-1.42-1.71-1.69-.81-3.1-2.11,2.13-1.08-3.38-1.83-3.9.11.92-.4,1.26-1.26,1a11.06,11.06,0,0,0,.8-2.53c-.49,1.69-1.61,1.1-2.65.35-1.48-1.08-.71-1.84-1.26-3.33a2.51,2.51,0,0,0-1.59,1.61c-.18-2.89-6.29-2.65-4.59-6.31a6.06,6.06,0,0,1-1.61.34,27.47,27.47,0,0,0,2.06-5.4,7.16,7.16,0,0,0-1.59,2.41c-.19-1.87-.93-.91-1.5,0-.27-1.26-.45-3.93,1.15-4.48a8,8,0,0,1-4,.69"/></g><g id="ng"><path id="path5382" class="cls-2" d="M391.28,457.29c1.46-.1,2-1,.8-2a3,3,0,0,0-.8,2"/><path id="path5386" class="cls-2" d="M394.37,456.6l1.15-.69a5.12,5.12,0,0,0-2.3.57l1.15.12"/><path id="path5406" class="cls-1" d="M336.75,408.85c1.43-5-.63-10.89,1.56-15.59.53-1.15,2.56-.13,3.52-1.24,1.64-1.89.15-4.19,1.83-6.08,1.1-1.24,1-3.2,2.38-4s3.51-2.58,2.83-4.58c-.53-1.55-1.24-2.84.83-3.27,2.91-.6.56-4.76.26-6s.13-2.39-.53-3.62c-.57-1.06-1.46-1.9-2-3-1.13-2.2.51-4.06,1.16-6.1.78-2.46.23-5.08.41-7.64.21-3.08,1-3.72,3.2-5.84a9.73,9.73,0,0,0,2.6-7.13c-.05-2.14,1.43-3.42,3-4.7a10.12,10.12,0,0,1,6.33-2c3-.12,4.61-1.2,7.36-1.9,1.61-.41,3.71,1.44,5,2.1,2.29,1.15,4.67.48,6.66,2.4,1.75,1.7,2.59,3.73,3.78,5.78a3.89,3.89,0,0,0,2,1.9c1.89.62,2.16-1.51,3.67-1.67,5-.56,6.69-5.07,11.95-1.33a7.11,7.11,0,0,1,2,1.89c.23.37,1.61.19,2,.4,2.19,1.18,3.07,2.81,5.91,2.92,1.66.06,5.12,1,6.56.33,2-.91,2.74-3.55,4.48-4.87,4.21-3.17,10.56-3.45,15.59-3a19.2,19.2,0,0,1,7.33,2.19c2,1,4.42,2.55,6.72,1.71s3.35-3.34,5.17-4.71a6,6,0,0,1,3.26-1.52c2-.11.6-.51,1.69-1.23,4.18-2.79,5.52,1.17,7,4,1.29,2.41,3.9,2.61,3.27,9.29a9.36,9.36,0,0,0,1.73,4.21c.81.65,1.42,0,2.41.41,5.17,1.87.47,7,2,9.4,2,3.1-4.41,5.48-6.74,5.23-3.5-.37-4.75,7.27-5.66,10-.52,1.57-.81,3.23-1.29,4.79-.53,1.75-2.49,1.48-2.54,3.46,0,1.77.39,4-1,5.58-1.15,1.33-2.8,1.92-4.35,2.71,1.72.34,0,4.74-.11,5.74A4.88,4.88,0,0,1,455,399c.27,1.49-.88,1.82-1.68,2.77-1,1.18-.18,2.94-.46,4.34a23.7,23.7,0,0,1-4.32,9.4c-1.77,2.32,1.5,3.74-2.58,6.39-1.72,1.12-.69,2.34-1.29,3.95-.4,1.06-1.79,2.07-2.33,3.06s-2.26.39-3,.1c-.9-.36-.69-3-.75-3.81s-3.23-1.76-3.66-2.82c-.69-1.69-1.53-1.12-2-3.08-.35,1.21-.44,3.34-2,3.68-1.94.42-2.77-1.66-4.34-1.15-2.82.91-3.42,5.31-5.25,6.52-2.38,1.57-10,9.34-9,10.37,1.62,1.65-1.3,5.9-1.3,7.09,0,2-.78,3.7-3.24,7.62-1-.25-1.88-1.64-1.43-2.56-1,.68-1.85-.36-2.3-1.15,1,3.77,2,4.63-2.42,5.26-1.73.25-7.44,1.39-5.84-2.17-.75,1.44-.78,1.83-2.52,1.72-1.92-.12-1.59-.62-3.46-1.84.88.64,1.93,3.94-.15,3.1-1.39-.56.67-3.9-1.8-2.64.69,1.38,1.28,2.7.69,4.25-1.14-.48-2.46-4.6-2.06-5.85-1.31,1.14.87,4.45.18,6-1,2.17-.94-2.92-.88-3.37-.22.63-.56,4.11-.69,1a4.07,4.07,0,0,1-.8,2.64,4.77,4.77,0,0,0-.69-2.3c.49,1,.45,2.58-1.06,2.44-2.73-.24-2,.38-2.73-2.21,0,2.45-1.88,4.58-2.3,1,0,2.3-.57.79-2.25,0a8.85,8.85,0,0,1-3.6-4c-.79-1.47-1.78-3.08-1.36-4.8.28-1.15.43-2.2-1.18-1.74-.3-1.25-.16-1.95,1.11-2.2,2.47-.5.16-1.39,2-2.5-1.31.1-2.47,1.88-3.75,1.59-4.11-.93,1.51-2.37,2.5-2.51a1.55,1.55,0,0,0-2.3-.34q.05-.75.11-1.49c-.25,1.43-2.06,2.47-2.76.69-.63-1.61,1.3-2.32,2.18-3.21a8.3,8.3,0,0,0-2.76,2c-1.57-3.58-5.06-7.55-9-8.54a21,21,0,0,0-6.14-.61c-1.53.1-3.77.76-5.09-.37a5.74,5.74,0,0,0,5.05-2.18c-1.71-.08-2.92,1.93-4.59.57a2.39,2.39,0,0,0-.46,2.41c-2.75.36-5.55-.17-8.27.46-.09-1.72.88-3.24.92-4.94s-.74-3-.3-4.86c.72-3,.78-8.64-1-11.32"/></g><g id="tn"><path id="path5410" class="cls-1" d="M397,47.94c.27-1.35,1.54-1.87,2.52-2.61,1.53-1.16,1.66-2.21,3.35-3.49a9.6,9.6,0,0,0,2.89-4.64c1-3.41.76-6.07.92-9.34.11-2.06-1.19-3.85-.92-5.92.31-2.35,2.92-6.81-.85-7.62,1.35-1.56,3.56-2.36,4.6-4.21.39-.68.14-1.86,1.08-2.13s1.68,0,2.5-.87a12.28,12.28,0,0,1,6.14-3.44c1.16-.33,2.76-1.21,4-.71,1.47.59,0,1.3.16,2.41,1.22,0,1.51-.61.8-1.61,2.24.49,2.89.15,3.79,2.18.4.89-.84,1,.36,1.83a1.54,1.54,0,0,1,.21,2.53c.07-.07,1,1.06,2,.65a14.51,14.51,0,0,0,3.55-2.55c.42-.36,1.89-1.94,2.58-1.63,1.64.75,1.43,2.37.68,3.72-1.43,2.59-6.31,5.07-6.48,8a6.77,6.77,0,0,0,3.18,6c3,1.63,2.92,1.7,3.64,5.17.91,4.37-2.14,8.9-5.5,11.55s-8.43,4.11-5.13,9.23a7.23,7.23,0,0,0,2.94,2.75c1.38.63,1.94-.24,3.21-.06.42.06.68,2.1.94,2.54.62,1.05,2.37-2.05,3.32-1.71,1.3.47.42,1.53.81,2.41.54,1.22,2.42,2.33.46,2.53,1,1.1,3.27-.11,4.23,1.15.8,1.06-.52,5.17-.23,6.71.43,2.31,2.12,3.3-.41,4.82s-7.64,3.17-9.13,5.23c-.85.68-.55,2.64-1.75,3.12-2.53,1-4.94,1.86-3.94,5.72.8,3.09,2,5.51.2,8.54-2.08,3.53-3.92,4.88-7.57,6.49-.88-5.76-2.53-11.31-3.66-17-1.17-5.9-1.77-9.31-6.75-12.07a7.36,7.36,0,0,1-4-5.44A7.27,7.27,0,0,0,402.23,61a7,7,0,0,1-2.71-2.18c-.7-1.11-.46-2.62-1.16-3.74-1.46-2.33-2.26-4.81-1.34-7.14"/><path id="path5412" class="cls-2" d="M435.69,53.68c-.19-1.53-1.24-.29-1.59-1-.86-1.83,0-2.41,1.52-2.39,3.37,0,1.26,2.06.07,3.42"/></g><path id="na" class="cls-1" d="M446.73,755.74c1.69-.26,3-1.75,4.82-1.43,1.54.27,2.92,1.44,4.55,1.13,3.39-.65,5.71-4.6,9.57-3.55,3.07.84,4.71,4.29,7.79,5.32,1.75.58,7.14.36,10,.38,13.1.11,26.21.37,39.3-.15,3.46-.14,4.63-.39,6.27,2.66,2.08,3.89,5.19,3,8.93,3.44,4.9.54,10.11.31,14.7,1.92,1.76.62,3.35.84,4.91-.1,1.38-.84,2.69-.54,4.68,0a8.42,8.42,0,0,0,4.54-.15c8.17-1.9,17.42-3.81,26.08-5.45,1.68-.32,3.38-1.09,5.12-.82,1,.16,2.59,1.15,3.61.64,3.26-1.63,4.76,1.81,6.91,3.29-1.57-.41-3.39.51-4.88,1.09-1.85.72-2.39,3.48-4.17,1.85-2.85-2.62-8.43,6-10.53,7-1-2-2.13-6.36-5-6.63-3.76-.36-8.44,1.54-12.1,2.32-4.31.91-9.4,1.09-13.7,1.89l-1.58,50.86L545.68,821l-2.35,86.7c.27,4-3.12,2.29-5,4.09-.93.89-.86,1.75-2.72,2.39-1.27.44-1.86,1-.82,2.15-2.86.85-2.72-.23-5.39-.62s-5.18,1.1-8.49.39c-5.24-1.13-8.34-3.06-8.59-4-.66-2.67,0-1.57.06-3.69-.1-.84-1-.62-1.65-1.28-.91-.94-1.7-3-2.66-2.35-3,1.92-2.19,4.78-3.25,5.6-1.5,1.18-3.39,2.72-5,.74-2.07-2.61-4.85-4.7-6.7-7.48a72.43,72.43,0,0,1-4.28-7.81,14.8,14.8,0,0,1-1-4.45c-.25-1.57-1.32-2.39-1.63-3.82-.57-2.63.61-3.59-1.34-6-.78-1-.52-1.59-.49-2.82,0-2-.65-3.72-.86-5.67a23.57,23.57,0,0,0-.43-4.14c-.56-1.92.4-3.77,0-5.69-.64-3.3-2.21-6.32-3.41-9.44-1.35-3.52-.34-6.49-.7-10.05a37.61,37.61,0,0,1-.37-6.69c.1-.59,1.57-6.46.93-6.31-.15-3.16-1.75-6.26-3.54-8.79a47,47,0,0,1-3-4.29c-.78-1.41-.94-3.14-2-4.43-4.7-5.93-5.7-13.13-9.17-19.55-3.18-5.89-4.25-14-9.42-18.61-5.56-5-6.21-12.26-5.73-19.29"/><path id="za" class="cls-1" d="M501.94,912c1.2-1.13,3-.9,3.25-2.67.2-1.5,1.25-4.11,2.84-4.62,2.1-.67,1.84,2.26,3.27,2.68,2.47.71-.05,3.18,1.15,4.68,2.11,2.64,5.36,2.88,8.46,3.87,2.83.9,5.1-.37,7.86-.3,2.48.06,3.44,1.47,6,.71-1.53-1.74.37-2,1.4-2.42,1.42-.55,1.52-2.39,3.32-2.91,1.16-.34,3.56-.5,3.7-2.11l1.1-49.61c1.36,1.91,3.7,2.82,5,4.81,1.44,2.28,2.33,5.3,3.27,7.82s1.79,5.31.55,7.93c-1.58,3.36-2.74,5.19-1.19,8.93,2.73-3.16,9.51,1.64,12.48-1.25.49-.48.11-1.7.84-1.91s1.52-.07,2.31-.52c2.06-1.18,2.49-3.88,4.63-5.15,2.35-1.4,3.86-2.94,4.4-5.75.47-2.45.39-4.48,2.41-6.31a5.51,5.51,0,0,1,6.17-.95c1.77.8,4.31,4.55,6,4.5,3.77-.1,8.21,4.45,11.78,1.62,1.6-1.27,4,.49,6-1s2.9-4.24,3.82-6.63a19.49,19.49,0,0,0,1.13-3.92c.34-2.19-.71-2,1.51-2.66,1.29-.37,5.06-1,5.76-2.21,1.26-2.16,3.77-3.13,4.82-5.41,1.15-2.49.66-5.06,2.36-7.41,1.46-2,3.09-2.19,5-3.5a30.43,30.43,0,0,0,5.87-5.28c1.25-1.58,2.09-4,4-5s4.12-1,6.1-1.77,1.84-1.53,2.77-3c.78-1.24,2.92-1.65,4.23-1.92,5.33-1.12,8.58,2.39,13.76,2.43,4.61,0,8.81-1.75,10.32,3.92a41.71,41.71,0,0,1,1.65,9.66c.08,3,1.91,5.55,3,8.24,2.32,5.75,1.75,11.2,1.45,17.27-.12,2.33,0,5.19-.83,7.65-.41,1.2-.59,1.13-.16,4.59a7.27,7.27,0,0,0-3-2.26,11,11,0,0,0-4.08-.31c-1,2-2.56,1.57-3.72,4.09-1.4,3-2.65,7.68-3.08,7.34,2.25,2,3,3.65,4.4,5.24,2.27,2.6,5.53,4,8,1.52.68-.67-.34-1,2.12-4.48l2.06.05,7.23.25c-1.37,6-3.09,11.38-4.71,17.36-.84,3.1-2.47,9.39-6.73,9.09.67,1.52-1.31,1.46-2.22,1.65-1.14.23-2.11,1.67-2.84,2.47-2.57,2.86-5.19,6.25-6.37,9.89-.66,2-2.47,3.34-3.5,5.17-1.58,2.82-3.24,5.61-5.09,8.26-3.34,4.77-6.91,8-11.35,11.65-3.71,3.06-5.9,7.5-9.6,10.54-4.71,3.87-9.33,7.87-14.18,11.57-3.82,2.9-8.19,6.37-13.11,7-2.36.32-4.7-1-7-.26-1.69.52-4,2.56-1.72,4-2.77,1.23-5.84-2.3-8.43-.52-3,2.07-3.67,3.3-7.82,1.72-3.12-1.19-7.11-2.45-10.4-1.2-1.47.56-.73,1.51-3,.71-1.31-.47-3.61.34-4.27-1.18a1.29,1.29,0,0,0,0,.57c-3.37-.55-8.77,1-10.5,4.14-1.51,2.74-9-.09-11.44.94-1.44.62-3,.21-4.3.85a30.25,30.25,0,0,0-4.88,3.45c-1.81,1.41-1.1,1.13-3.19.59-.91-.23-1.94.29-2.75-.38a9.06,9.06,0,0,0-3-2c2.09-2.86-4.32-3-5.74-3.22.87-2.23,0-4.22-2.69-3.73-1.8.33-1.14,2.47-1.1,3.73-3.27-1.27-.68-5.17-.37-7.15.28-1.73-.67-3.51-1.53-4.93-.5-.82-4.58-6.47-1.88-3.86-1.15-1.16-.65-2.44-2.37-2.42-1.46,0,.14-3.62.3-4.13,3.71,2.18,4.67-2.09,4.73-4.94a23.5,23.5,0,0,0-3.76-13.22c-3.77-6.24-7.1-12.42-9.26-19.43-1-3.27-1.66-6.65-2.87-9.87s-4.13-6.08-4.44-9.59"/><path id="eg" class="cls-1" d="M598.59,103.85c-2.27-3.64,2.41-7.45,1.83-11.18-.62-4-4.27-6.8,1.5-11.55C602,84,605.44,83,607.2,82.47c3.22-1,5.86.11,9.06.43a64.67,64.67,0,0,1,10.25,2c1.43.38,1.66,1.94,3.12,2.39a8,8,0,0,0,3.56.1c.86-.09,1.26,1.25,2.23,1.45a30.82,30.82,0,0,0,3.22.33c3.45.34,5.75,2.5,9,3s6.12-1.58,8.36-3.5c1.16-1,2.25-2.07,3.31-3.16.91.71,1.6,1.45,2.76,1.26-.66-.33-.52-.52-1.39-.46a4.84,4.84,0,0,0,2.53-3c2,1.17,3.79-.93,5.74-.92a11.35,11.35,0,0,0-3.57,2.41c.35-.2,8.26-2.6,4.48-2.87,2.79-.92,4.61,2.28,7.29,1.89,1.28-.18,2.49-1.45,3.85-1s1.86,2.27,3,3c-1.14-.79-2.3-2.54-3.79-2.64.44,1.19-1.2,3.44.74,3.9,2.1.5,1.12,1,2.48,2.3,0-.47,3.75-2.05,1-3.33,2.89.67,3.85,3.34,7.25,3,1.1-.1,4.35-2.13,3.77.28,2.1-1.34,4.46-.56,6.72-1.24a14.83,14.83,0,0,0,5.58-2.76l9.69,25.59c-2.45,3.12-1.9,8.88-3.46,12.57a12.25,12.25,0,0,0-.85,5.79c0,2-2.46,3.84-1.85,5.74-1.18-1.1-2.77-1.59-4.08-2.5a17,17,0,0,1-4-4.49c-1.44-2.08-5.65-3.43-5-6.55s-2.41-5.32-4-7.53a30.16,30.16,0,0,1-4.54-10.26c-1.44,1.54-3,4.92-1.47,6.68,2.57,3,2.3,6.73,4.45,9.85,1.86,2.7,3.75,6,6.08,8.32,1,1,2.2,1.9,3.14,3,.49.58,2.51,3.92.07,2.1,2,1.54.34,3.5,1.59,4.77a16.17,16.17,0,0,1,3.45,5.65,18.3,18.3,0,0,0,1.76,2.91c.47.73-.46,1.65-.5,2.36-.06.95,1.49,2.36,1.91,3.17,1,1.87,2,3.7,3,5.57,3.22,6.14,6.47,12.17,9.51,18.4,1.19,2.44,2.94,4.18,4.44,6.37,1.39,2,3.84,2.67,5.13,4.74a7.17,7.17,0,0,1-3.55-.69c-.81,3.33-.42,8.42,1.28,10.38s-2.12,5.62-4.4,5.73c-1.13.05-1.56-.77-2.7.5a11.47,11.47,0,0,0-1.78,4c-.47,1.48-1.17,2.79-2.8,3.17-1.32.31-3.7,0-4.41,1.55-1.28,2.78-.5,6-4.42,5.71-4.56-.36-6.88-4.06-9.29-4-7.92.33-12.47,1.05-18.68,0,.18-.62.9-1.94.45-2.58-1.12-1.62-2,1.32-2.35,1.85-1.49,2.13-8.92.85-11.3.85l-63.92-.14-2.28-86.39c-.24-4-.14-8.27-.7-12.27-.48-3.44-1.36-8.53-2.91-11.63"/><g id="tz"><path id="path4894" class="cls-2" d="M780.77,600.79c.45,2.87.86,3.89,3.13,5.86,1.57,1.37,2-5.56-.5-3.45a10.07,10.07,0,0,0-1-6.2c-.38,1.24-2,2.37-1.59,3.8"/><path id="path4896" class="cls-2" d="M785.94,628c1.23-1.11,3.28-1.84,2.52-3.91-.7,1.66-2.79,1.75-2.52,3.91"/><path id="path4898" class="cls-2" d="M786.73,586.66c.19,1.46,1.45,2.69-.24,2.87q.6.37,1.16.8c-2.37,1.35-.24,3.41.75,1.23,1.18-2.57.85-5.08-1.56-6q-.06.57-.11,1.15"/><path id="path5432" class="cls-1" d="M666,592.2c.92-6.75,1.18-2.05-1.68-8.11-.54-1.15.71-3.22.1-5.15,2.79-.29,3.25-.53,5.06-2.6,1.45-1.66,3.8-3.92,5.26-5.71,1.06-1.3-1.18-2.56-.73-3.52.55-1.14,2.84-.22,2.43-1.58-.26-.9,2-2.19,2.48-2.65,1.37-1.32-.6-2.87.59-4.11-3.66,1-6-1.17-3.91-4.46-2,.19-.59-1.27.14-2.43.93-1.47,2.73-.89,3.5-2.39,1.45-2.8-.78-7.82-2-10.51-.88-1.88-3.95-6.19-1-7.15,3.59-1.18,11.6-.26,15.46-.15,1.61,6-1.19,6.16-1,6.86.73,2.42-1.38,5.29-1.3,5.88,1.26,1.69-.12,3.31.14,4.18.87,2.92,1.6.6,2,7.74.19-1.51,1.3-2.32,2.2-.68-.36-2.93,0-3.21,1.85-3-1.37-.75-.47-2.43,1.68-3.63.42.42,2.51,4.9,4.71,2-.29.69,1.32.92,1.6,1.83.54,1.79.52,5-1,4.32l.92,1.21c.78-.91-.62-1.23,2.48-1.49-1.86.34-4.67-10.18,5-4.16.42-2.58,7-5.5,5-5.7-2.4-.24-2.1.76-3.43.59-4-.53-3.81-1.31-4-1.14.95-1.08.06-1.08,4.23-1.37-.37-1.52-4.12-.69-3.23-.95.41-.37-1.28-1,3.33-1.63a1.54,1.54,0,0,0,1-1.81c-.13-.56.55-.1.78-.39-1.81-1.91-.54-2.14-.1-2.39s.88.24,2.91.64a2,2,0,0,1-.62-2.75c.56-.74,0,.81.53.12-.63-.46-.41-1.52.06-2.08s1.14-1.26,1.61-1.86l36.42,22.83c3.08,2,6.92,3.36,7.84,7.12.39,1.61-.88,1.55-1.21,2.93-.25,1,1.51,2.17,2.09,3,2,2.92,5.95,4.88,8.55,7.23,1.55,1.4,8.89,6.13,8.62,8.17a38,38,0,0,1-3,10,40.35,40.35,0,0,0-1.92,4.67,10.25,10.25,0,0,0-.46,2.34c-.07,1.09.94,2.09.77,3.05-.73,4.13,5.94,4.45,5.11,8.86,3.61-1.14,3.13,3.13,1.77,4.84-2.16,2.72-.89,5.94-2.35,8.58,2.5-2.28,2.34,2.45,1.76,3.65a11,11,0,0,0-1.28,5.91c.24,1.85,2.94,5,.91,5.35,1.54.29.64,3.16,1.83,3,1.94-.19.95,2,.52,2.89-.78,1.73,1.24,2.37,1.6,3.95.2.88-.47,1.4,0,2.29.62,1.16.9,1.86-.29,2.87,2-.37,2.81,1.34,3.2,3-.18-2.86,6.83,1.26,4.59,4.43-4.82,3.73-9.07,5.91-13.52,8.66-1.62.57-1.85-.46-3.48.1s-4.31,2.65-6.05,3.22-3.8-2.8-5.75-1.82c-2.25,1.13-3.21,4.55-5.61,5.61-4,1.77-4.79.42-6.05-.67-2.48-2.13-3.39,1.78-6.12,1.47-3.14-.36-4.21.06-5.94-2.11-1.34-1.69-2.89-2.48-4.85-.66-1.39,1.28-6.19,1.05-8.66.54-.23-.22-.35-1.5-.67-2a37.33,37.33,0,0,1-2.48-4c-1-2-.32-4.17-.73-6.29-.56-2.83-.08-5.45-.79-8.23a13.92,13.92,0,0,0-4.85-7.38c-2.24-1.75-2.68,1.64-2.47,2.16-2.29-2.46-4.44-.16-6.59-2.52-.67-.74-3.22-.93-4.2-1.5a14.37,14.37,0,0,0-5.67-2.13c-.4-.06-.74-.67-.93-1-.79-1-1.44-.75-2.46-1.25s-2.22-.31-3.16-.81-1.07-1.54-1.87-1.93-1.41.46-2.1.26c-1.12-.33-1.28-1.52-1.87-2.35a4.34,4.34,0,0,0-4.24-1.82c-.75-1.68-4.7-9.75-6.53-14.61-1.68-4.48-.42-12.82-6.7-15.19-.95-.36-.18.72-1.26.22-2.3-1.06-4.61-3.66-.52-7.68,1.58-1.55-1.1-4.5-1.82-7.13"/></g><g id="gq"><path id="path5778" class="cls-2" d="M409.75,473.59c.84-1,4.77-8.42,1.3-7.71a3.06,3.06,0,0,0-2.38,2.31c-.52,1.45-1.45,1.64-2.32,2.71-1,1.24,2.77,2.35,3.41,2.69"/><path id="path5784" class="cls-1" d="M421.12,495.86a1.56,1.56,0,0,0,1.26-.23c-2.51,1.22-.23-2.48.22-3.19,1.28-2,.25-5,1.18-7.46,1.68,3.31,2.79,2.49,5,3l13.08-.14.08,16-14.45-.32c-.93.13-5.37,1.48-3.7-.58-1.48-.76-5,.85-5.87-1-.83-1.73,2.48-4.6,3.22-6"/></g><path id="ls" class="cls-1" d="M624.88,926.67c1.52,1.5,1.39,3.67,2.62,5.22,1.06,1.34.7,3.12,1.82,4.23,1.4,1.39,5.06,6.07,7.49,4.11,1.06-.86,2-3.74,2.71-5,1.18-2,3.18-1.58,5.1-2.11,1.4-.39,4.38-1.56,5-3,.76-1.88.84-3,2.18-4.61.5-.63,2.11-2.32,1.84-3.25-.84-2.9-2-3.09-4-5.1-1.5-1.57-3.11-3-4.59-4.63-1.29-1.37-3.49.79-4.66,1.3a33.21,33.21,0,0,0-3.19,1.86c-1.49.82-3,.52-4.22,2.05s-1.91,3.68-3.06,5.41c-1.31,2-3.22,2.21-5,3.53"/><path id="bi" class="cls-1" d="M657.35,555.56c1.51-4.84,4.12.45,4.5.5,5.35.62,6.42-1.13,6.87-6.47,2.94,2.53,2-1.13,8.64,1.17-1.12.55-4,3.64-1.75,3.55-1.87,4.89,1.84,5.08,3.91,4.46-1.26,1.92,1.57,2.73-1.12,4.65-1.66,1.19-1.61.52-2,2.66-.09.53-2,.27-2.36.95s1.17,2.49,1,3a8,8,0,0,1-2.34,3c-2.19,1.61-2.5,3.5-4.83,5a6.1,6.1,0,0,1-3.35,1c-.42-1.39-2.9-6.64-3.38-8.36-.7-2.48.29-5.05-1.37-7.21.19-1.22.79-2.7-.18-4a12,12,0,0,1-2.23-3.78"/><path id="dj" class="cls-1" d="M811.06,365.57c0-3.7-1.43-7.38.81-10.72,1.69-2.52,3.23-4.8,4.7-7.44,1.71-3.09,2.57-1.43,5-.78,1.24.33,1.17-1.61,1.66-2.25.75-1,2.06-1.39,3.09-2,1.07,2.34,5.54,6.7,3.38,9.44-1.1,1.4-4.56,3-6.21,3.65s-1.91,2.67-3.84,3c1.27,1.63,5.05-1.06,6.89-.35,3.32,1.29,0,4.54-.88,6.36-1.34,2.76-3.46-.12-5.53.43s-7.67,3.33-9.09.67"/><path id="cg" class="cls-1" d="M439.49,572a8.71,8.71,0,0,1,3.81-5.41c2.05-1.56,2.78,3.62,5.47,2,.39-.24-.11-2.56.31-3.42.9-1.86-1-2.27-2.13-3s1.78-6.73-2.51-5.54c1.5-2.05,1.07-4.5.45-6.78a15.16,15.16,0,0,0,4.13.25c.74,0,1.09,1.14,1.79,1,2.07-.5,5.72,0,5.25-3.08-.32-2.13-1-6.64,3-4.46,1.49.8,4.12,5.23,3.16,6.89,1.89-1.09,3.68,1.26,5.61.8,1.66-.4,3.25-3.08,3.68-4.59.51.93,1.42,6.13,2.58,6,.87-.07,3.13-2.33,3-3.31s.09-4.43,1.1-5c1.35-.78,2.62-3.34.91-4.48,2.32-.82,1.18-5.26.68-6.88-.76-2.47,1.79-5.21.61-7.39-.7-1.3-2.5-1.68-3.81-1.68-.71-.53-.07-2.33-1.61-2.48-4-.38-.88-2.48-1.37-4.93-.33-1.69.25-5,1.81-6.14s3.07-.58,4.13-2.82c.82-1.74-.49-3-1.13-4.55-1.17-2.73-1.55-5.29-5.08-4.72-3.06.49-5.78,2.16-8.81,2.68.86-2.26-.09-4.73-.3-7-.23-2.51,1.36-4.89,1.44-6.16,0-1,12.27.32,13.33.21,2.05-.22,2.78.32,4.73.47,1.64.12,1.89,2.33,4.1,1.73,4.33-1.19,8.87,1.89,11.84,4.8,1.4-2,0-3.47.09-5.58.07-1.74,1.8-2.78,2.43-4.29a41.7,41.7,0,0,0,2.49-6.48c.42-1.82-.25-3.5.15-5.25.3-1.33.66-3.32,2-4,1.7-.94,3.85,0,5.68-.79,2-.84,3.51-2.2,5.72-1.17s3.64,1.91,6.09,1.51c3-.49,6.94-1.61,6.52,2.61-.36,3.61-2.9,8.61-4.62,11.7-2,3.63-2,6-2,10.22a24,24,0,0,1-1.13,6.94c-.77,2.45-1.36,3.79-1.4,6.46,0,1.73-.12,3.41-.24,5.17a35.51,35.51,0,0,1-1.05,5.62c-1.09,4.3,1,7.08-2.61,11-3.21,3.52-6.59,4.52-8.76,8.47a55.66,55.66,0,0,0-2.71,6c-1.54,3.82-5.21,4.39-5,6.72.38,3.83.06,7.57,0,11.81s-1.82,10.48-5.76,11.17a4.93,4.93,0,0,0-3.37,3.27c-.24.81-2.83,1.91-3.59,2.83-1.37,1.65-2.36,3.59-3.95,5.23-2,2.07-4-.39-5.2,1.13,0-1.48-1.34-4.15-.31-5.36.82-1,1.22-1.84-.45-2.36-2.08-.65-4.91,3.67-6.69,1.3-.89.94-.74,2.11-1.2,3.21-.62,1.47-2.58,2-3.63,3.1-.11-1.92-2.79-2.19-3.22-4-1.43,2.63-2.89-5.21-5.36-1.37-.85,1.32-2.24,1.21-3.28,2.1s-2.83,3-3.9,4.17c-2.52,2.8-3.29-2.42-3.7-3.92-1.06-3.93-5.31-7.35-8.21-10.05"/><path id="rw" class="cls-1" d="M655.65,552.11c-.84-1.74,3.54-4.71,3.5-7-.08-4.07,1.75-5.84,5.23-7.86.43-.25,2.51-1.57,3.05-1.15.73.57,1,2.53,2.19,1.23.93-1,4-5.54,5.66-4.95-.79,2.34,1.22,5.28,2.28,7,1.33,2.16,2.68,5.88,2.33,8.37-.45,3.12-2.23,3.53-4.87,2.53-3-1.14-3.72,1.58-6.29-.7-.37,2.82-.13,5.9-3.54,6.61-1.74.36-3.36.59-4.21-1.15-.94-1.91-3.42-1.76-3.62.53a4.72,4.72,0,0,1-1.7-3.44"/><path id="sn" class="cls-1" d="M95.8,314.49a2.53,2.53,0,0,0-1.83.69c-.2-2,3.46-2.57,4.59-3.7a31.16,31.16,0,0,0,5.89-8.91c.69-1.51,4-15.85,7.53-12.56,1.58,1.48,10,0,11.3-1.57,2.07-2.42,10.21.29,11.93,2.35,2.32,2.77,2.61,3.89,6.41,4.28,2.07.21,4.37,4.26,3.93,6.26-.2.93,2.81,2.56,3.34,3.54.66,1.22,1,2.64,1.95,3.69s2.86,1.15,3.48,2.41c.91,1.84,3.68,2.87,3.93,5,.11,1-1.48,2.09-.37,3.08a3.8,3.8,0,0,1,1.71,2.76c.15,1.49,1.45,5.09.24,6.22q-1.89.41-.34,1.84a4.14,4.14,0,0,0,1.21,1.77c1.09.62,0,1.81,1.57,2.24.83-3.26,3.45,2.4,3.9,3.3a5,5,0,0,1,.67,3.89c-.43,1.75.73,4,.13,5.44-2-.85-4.14.48-6.24.11s-3.45.9-5.51,1.18-5.5-3.46-7.27-2.29c-1.38.92-.88-1.67-1.17-1.76-1.87-.55-1.23-.88-2.81-.88l-20.16,0c-2.64,0-3.74.15-5.73,1.72-1.74,1.38-4.13,1.25-6.73,1.16-2.24-.08-3.81,1.26-5.91,1.6-1,.17-2.16-.18-3.09.46-.21-.52-1.31-1.65-.74-2.28,1.45-1.59,2.27-2.37,4.18-1.16,1.44.92,3.24-.51,4.77-.54,1.12,0,1.68.84,2.82.48a2.85,2.85,0,0,1,2.13.17c1.47.48,1.36-3.22,3-3.79-2.46.18-1,2.26-2.53,3.33-1.29.92-4.74-.31-5.17-1.84-.9,3.85-8.58,1-6.89-.92-.72,1-.67,2.76-2.17,3.1a2,2,0,0,1,.8-2.29c-2,.45-.91-2.63-.46-4,.67-2.06,3-2.18,4.84-2.18l6.57,0c1.21.67-1.4-.43.74-1.84,1.87-1.23,3.8-.39,5.63-.91,2-.58,1-3.48,3.66-1.8,3.78,2.35,7.57,4.82,11.95,3.36,1.67-.56,3.54-2.19,1.4-3.33-2.68-1.43-3.22.61-5.32.52s-1.58-3.28-4-2.31c-.93.37-1.77-.91-2.08-1.53-.62-1.28-2.6-.83-3.8-.1-1.7,1-2.07-.6-3,.33-.65.68-.42,1.54-1.25,2l-12-.06c.49-1-.46-1.65-1.67-1.78.2-1,.81-1.34,1.72-.92a4.92,4.92,0,0,1,.22-2.87,4.11,4.11,0,0,1-3.09,2.53c-.41-1.28,3.3-4.55,4.59-4.71-1.4-.59-5.18,2.8-5.17,4.13,0-3.77-2.31-10.6-6.31-12.06"/><path id="tg" class="cls-1" d="M302.66,364.08c2.36.62,4.78.85,7,1.86,1.82.82,4.68.32,6-.32-.94,2.64-2.94,7.15-.81,9.7,1.21,1.45,5.62,3.09,5.82,5.05.28,2.94-.37,6.34,1.12,9,1.68,3,2.49,5.06,2.42,8.63-.11,6.21-.07,12.39.09,18.6,0,1,.32,4.67-1.4,4.62.58,1.8.25,3.84,1.11,5.56.7,1.4,1.73,2.69,1.87,4.31a24,24,0,0,0-7.35,2.41c0-1.18-3-2.66-3.74-3.37a16.36,16.36,0,0,1-4-4.49c-1.44-2.65,1.36-5.24,1.27-7.94-.06-1.8-2.05-2-1.69-3.72.44-2.09,1.61-3.26,1.34-5.56a8.71,8.71,0,0,1,0-3.69c.24-.76,1.31-1.45,1.06-2.3-.71-2.36-3.09-3.4-3.95-5.56,2.67-.26.9-4,1.7-5.76a4.58,4.58,0,0,0,.06-3.47c-.91-1.83-2.26.16-3.59-.07.74-1,0-2.21,1.72-2-.36-1.89,1-5.14.34-6.73-1.1-2.72.85-3-2-4.62-1.46-.83-3.51-3.68-3.33-5.42.14-1.37,1.43-2.23.88-3.7-.22-.59-1.55-.62-2-1.12"/><g id="ga"><path id="path5980" class="cls-2" d="M413.09,527.43l.46.91a1.49,1.49,0,0,0-.35-2.06q-.06.57-.11,1.15"/><path id="path6014" class="cls-1" d="M411.48,530a3.39,3.39,0,0,1-.69-3.55,3.55,3.55,0,0,0,1,2.41c.26-2.6,1.81-.45,1.72,1,.26-3.18,3.49-5,3.85-8.1.24-2.15-1.13-6.33.75-8a6.3,6.3,0,0,0,1.37,2.65c.35-1.73,2.88-.77,3.67.69-.21-1.47,1.37-2,2.53-2-2.91,0-5.14-.6-6.8-3.17-.66-1-2.8-2.32-.44-2.8,1-.2,2.37.31,2.41,1.51.85-1.91-.58-4.44,0-6.47.3-1.11,1.66-1,2.49-.55,1.49.81,2.53-.18,4.17-.18l14.3.23,0-15.77c.64-3.67,2.15-2.25,4.89-2.13,2.34.1,5.19.42,7.66.29s4.73.66,6.3.58c3.73-.19,6.68-2.15,4.16,3.77-1.57,3.68,1,7.18-.28,10.48,2.75-.47,5.23-1.93,7.95-2.53,5.09-1.11,4.48,1.91,6,4.47s2.67,5.93-2.18,7.05c-2.67.62-2.81,5.17-2.56,7.28.12,1-2,3.76.37,3.89,1.16.06,2.31,1,2.18,1.8-.19,1.21,2.57,1,3.58,2,2.23,2.22-.49,5-.09,7.45.25,1.53,2.06,6.09-.67,7.5,1.73,1.16.52,4.17-1.08,4.82-.45.18-1.09,4-1,4.16,1,1.17-1.73,4-3,3.89s-1.87-5-2.49-6.1c-.43,1.48-2.17,4.53-3.88,4.74s-3.73-1.92-5.42-.94c1.16-4.51-7.47-11.63-6.25-4.11.71,4.4-1,4.46-5.11,4.84-1.32.12-.94-1-2.24-.88a9.35,9.35,0,0,1-3.75-.42c.62,2.27,1.05,4.73-.45,6.78a1.86,1.86,0,0,1,2.71,2A16.32,16.32,0,0,0,447,562c.7.69,1.56.69,2,1.36,1,1.51-.15,1.71,0,3,.1,1.05.77,2.51-1.11,2.61s-2-1.59-3.45-2.46-4.57,4.48-4.92,5.48c-2.65-2.07-4.94-6.39-6.77-9.18C430,558.68,426,555.4,422.49,552c1.94-1.2,2.58,3.23,4.37,1-1.29.12-3.14-1.48-4.54-1.82-2.25-.56-3.89-5.75-5.33-7.58,1.45.13,2,1.72,3.33,2.07-1.23-2-1.46-1.52-3.23-2.55-.8-.47-.56-1.89-.75-2.59-.48-1.73-1.72-3.09-2.57-4.63,1.11.92,3.33,2.95,3,4.61a9.12,9.12,0,0,1,3.57-.57,6,6,0,0,1-1.61-1.85c-.26.91-.94,1.38-1.85.92.15-1.2,1.11-2.29.59-3.56-1.8,5.25-5.11-4.88-6-5.52"/></g><path id="mw" class="cls-1" d="M699.91,706.76a49.15,49.15,0,0,0,3.3-6.52c.76-2.29.61-2.92.14-5.92-.43-2.75,5.77-4.49,7-5.85-4.49-1.37-2.61-8.75-2.62-12,0-2.71,1.74-3.86.27-6.6-1.72-3.19.83-2.48,2.55-3.75,2-1.49,2.5-4.59-.86-8.49-2.7-3.13.68-4.08-1.88-5.78-2.11-1.4-2.94-1.34-3.43-1.86-.27-.29.51-2-.24-2.92a16.75,16.75,0,0,0,4.28,1.46c1.59.21,1.16,1.41,2.48,1.59s4.16-.06,5,1.5a10.78,10.78,0,0,0,2.68,7.62c2.29,2.77.11,3.33.45,5.55.29,1.88,1,10.73,1,11.76.12,4.07-5.15,8.11-3.75,10.54,5.4,9.32,3.67,9.19,3.37,11.06-1.26,7.8,4,6,3.24,9.56-2,8.7,3.26,7.29,3,3.15l4.33,5.57c1,.52.42-7.14-2.48-9.42-2.63.4-1.5-2.07-1.83-2.78,2.08,1,2.31,1.15,4.75,4.86a68.42,68.42,0,0,0,5.24,7.57c2.43,2.83,2.49,5.54,1.58,9.13-.8,3.15.38,6.24-.13,9.5-.22,1.41-.64,3.09-1.86,4s-3.27.68-4.55,1.78-.86,3.4-2.71,4.89a13.13,13.13,0,0,1,1.88,4.74c0,.62,0,2.54-.56,3.18s-2.85.49-2.52-.69c.69-2.5,1.86-1.8-.77-4.33-1.78-1.71-6.67-6.52-6.92-8.43-.43-3.34-1.32-2.57-.65-5.18a17.11,17.11,0,0,1,1.89-4.88c1.36-1.8,1.13-2.3,1.35-4.56.25-2.66.27-6.19-1.56-8.84-.72-1-2.87.39-4.8.62-1.57.18-3.91-.27-4,1.2-.91-1-7-8.06-7.34-7.92C702.75,711.5,699.5,708,699.91,706.76Z"/><path id="ma" class="cls-1" d="M152.73,136.1c.55-.61,2.34-3.45,3-3.68,2.26-.82,4.72-.93,7.06-1.44,4.33-1,8.72-2.32,12-5.45s6.54-5.48,9.89-8.33,5.67-6.36,8.24-9.67c1.74-2.24,5.75-8.71,2.37-11.16-1.31-.95-2.23-1-1.39-2.73s.74-3.49.84-5.39c.26-5.29,2.17-7.65,5.41-11.6,1.85-2.25,1.34-4.55,2.12-7.14.56-1.88,2.11-3.33,3.51-4.61,3-2.73,5.37-6.09,9.13-7.79,4.09-1.85,8.45-3.3,12.36-5.52,7.74-4.41,11.46-15.15,14.4-23,.28-.76,1.31-4.66,2.49-4.54a7.46,7.46,0,0,0,4.14-1.1c1.56-.84,1.86,1.23,2.31,2.35a10.53,10.53,0,0,0,3.94,5c4,2.81,7.24,2,11.76,1.48,3.75-.45,8.52,1.83,10.8-2.57a9.75,9.75,0,0,0,.56,2.88c.21,1.17,2.33,1.76.48-.13a3.52,3.52,0,0,0,4.41,1.3c1.64-.82,2.62.87,3.63,1.8s3,1.57,3.67,3c.74,1.62-.86,3.1,1.39,4-1.22,1-.82,2.71-.59,4,.37,2-.31,3.82-.08,5.79.19,1.58,1.21,2.58.82,4.28-.59,2.55-.3,3.45.91,5.69.62,1.14.06,2.16.67,3.2.92,1.55,2.35,2.17,3.71,3.24,2.5,2-5,5.25-1,6.76C291.52,76,277.07,71,275,76.62c-1.11,2.92-4,4-7.11,3.77-2.36-.2-5.26,3.17-2,4.06-2.72,2.49,2.28,4.34,1.08,5.52-1.36,1.35-3.75.86-5.22,1.94s-3.23,2.81-5.05,3.44c-1.38.48-2.94.43-4.23,1.16-2.51,1.4-3.52,4.34-5.36,6.4-2.11,2.36-6,3.28-9.07,3.4-2.3.09-4.78-.88-5.71,1.87-1,2.93-3.87.73-6.17.91a5.18,5.18,0,0,0-3.62,2.06c-1.06,1.15-2.32.91-3.64,1.43-1.53.61-2.47,2.12-3.69,3.14s-2.9,1.75-4.23,2.83c-2.58,2.09-4.85,2.4-4.59,6a63.37,63.37,0,0,1-.53,11.18c-.17,1.52-48.14.37-53,.37"/><path id="lr" class="cls-1" d="M164.45,422.17c1.66-.61,1.71-3.23,2.89-4.43,2.16-2.2,4.78-4.08,6.83-6.39,1.35-1.51.4-3.53,1.46-4.87,1.56-2,2.55-.86,3.59-3.79.42-1.18,0-1.36.28-1.61-2.18-.73,2.19-.68,3.29-.3s1.69-.87,2.73-.81c1.42.08,2.49,1.77,3.49,2.58-.67.86-.32,1.69,0,2.57.26.65-.16,2.16.56,1.45a16.92,16.92,0,0,1-.7,9.64c2.16-.81,4.35-.38,4.48,2.29,2.6-1,3.68-1.81,4.52-4.51.25-.79.47-2.34,1.53-2.5s2.22,2.33,2.63,3.24c1.49,3.26,1.49,5,1,8.52-.24,1.55-1.22,2.89-1.91,3.08a4,4,0,0,0-1.61,1.43c.11.38.75,1,2.61,1.07-.92,3.36,5.83.62,6.52,3.13.25.89-.22,2.12,1.63,3.34A8.28,8.28,0,0,1,213.7,439c1.25,3.54,0,5.56-.49,7.4-1.13,4.11-2.64,7-.78,10.83-1.9.36-3.39-.42-4.92-1.29-2-1.15-4.48-1.31-6.32-2.82-3.35-2.75-7.7-4-10.8-7.08-3.46-3.44-6.22-7.54-9.75-10.91-1.11-1.06-9.29-3.89-7.36-5.73-1.49.15-3.32-2.14-4.59-2.75-2.55-1.22-2.32-2.64-4.24-4.48"/><path id="cf" class="cls-1" d="M479.31,434.33a13,13,0,0,1,3.08-3c1.75-1.44,1.92-3.1,3-4.91,1.92-3.08,3.24-7.69,5.39-10.62,2.67-3.64,3.1-1.15,6.53-2.15,1.79-.52,3.2-.9,4.94-1.45s1.25-2.42,3.07-3.07c.5,1.93,2,3,3.09,4.59,1-1.91,3.91-2.84,4.81-3.53,2.85-2.16,7.31-3,10.71-3,3,0,5.9.84,7.36-1.92,1-1.94,5.21-5.39,5-7.24-.14-1.15-2.69-.85-2.81-2.33-.17-2.26,6.77-2.32,8.58-2.29,5.68.09,11.91-2.13,15.62-6.73,1.95-2.42,3.15-5,5.67-6.88,1.27-.95,4.84-4.16,4.12-5.65-.89-1.86.57-3.73,2.82-4.27,2.54-.61,4.5-3.8,7.46-3.87,3.58-.08,4.4,2.24,6,4.15,2.49,3,5.18,5.26,6.65,8.48a18.23,18.23,0,0,1,1.34,9.24c-.19,3.27-3,3.71-2.6,6.12l1.26-.46c.34,1.28-.36,2.42-.8,3.56,2.55.46,5.55-.19,7.91,1.1,2.55,1.4-1.62,5,3.16,5.85,1.61.27,3.81.1,5.18,1.13,1.6,1.21,2.4,2.54,4.13,3.82,2.69,2,.63,3.54.59,4.55-.06,1.69,2.34,2.91,3.64,3.68s2.94,1.75,4.39,2.5c2.84,1.45,2,2.23,3,3.88.74,1.17,3.88,1.76,3,3.49-1.15,2.31-.21,2.7,1.21,4s-.16,2.23,2.06,3.68a44.63,44.63,0,0,0,4.39,2.2c2.5,1.28,3.44,2.8,3.33,5.53-.1,2.54,1.63,3.94,2.41,6.1-2-2.18-4.69-3.07-6.47-1.22-.76.79-2.32.59-3.25.5a1.62,1.62,0,0,0-1.3.09c-1,.52-1.41-.45-2.21-.76-1.59-.62-2.9-1.91-4.59-1.43-3.38,1-3.5-1.29-5.66-1.62a1.66,1.66,0,0,0-2.07,2c.44,2.24-2.2,2.58-3.76,3.07s-3.69,1.2-5.14.14c-.78-.57-2.47-3-2.93-1.48-.63,2.09-4.9,3.48-6.7,3.8-3.3.6-5.43,3.71-6.83,2.18-1.58-1.73-3.35-4.22-6-1.15-.8.93-.72,2.34-1.33,3.36-.84,1.39-1,3.28-2.51,4.31-2.09,1.43-7-1.69-9.58-1.59-1.51.06-1.81.5-3.58-.09s-2.44.28-3.7-1.28-3.91-.24-5.69-.56c-2.23-.4-2.27-3.47-3.51-4.67-2.16-2.1-5.42-3.55-7.49-4.82-2.92-1.78-7.08,1.9-8.56,4.45a30.93,30.93,0,0,0-2.63,4.47c-.45,1.23-2.21,1-2.68,1.72-.74,1.12,1.13,3.42,1,4.72a38.31,38.31,0,0,0-.29,6.94c-1.59-2.64-5.61-.36-8.32-.76a21.48,21.48,0,0,1-4.43-1.68c-2.16-1-3.95,1-6.15,1.47-3.24.64-5.83-.48-6.55,3.54-.39,2.17-.16,4.53-.56,6.63-.53,2.82-2.43,5.54-3.39,8.25a57.92,57.92,0,0,1-1.53-9.18c-.23-3.22-3.63-3.05-5.33-4.93-.83-.93-9.49-11-5.53-11.14-2.05-1.45-1.63-4.63-3.73-6.27-2.73-2.13-2.33-5.19-2.45-8.39,0-1.2-1.59-2-1.55-2.82.06-1.18.75-2.39.83-3.64a12.31,12.31,0,0,0-.29-4.16c-.36-1.25-1.88-.66-2.35-2.29"/><path id="zw" class="cls-1" d="M609,763.44a7.83,7.83,0,0,0,4.62.12c1.51-.55,2.24,1.69,3.2,2.32s2.9-1,3.94-1.16c1.33-.21,3.32,1.3,4.48,1.79,3.35,1.43,5.36-1.62,7.16-4.05,2.41-3.25,4.79-6.29,6.51-9.18.83-1.39,2-1.95,3.21-2.92a22.76,22.76,0,0,1,5.55-3c3.93-1.63,4.64-2.1,4.87-6.56.11-2.19,3.77-4.89,5.75-5.67s4.12-1.75,6.12-1.82c2.42-.09,4.86.67,7.27.06,0,4.56-.39,5,4.67,5,3.15,0,4.91.78,8,2,1.73.7,5.72,3,7.35,3.89,2.35,1.26,6.3.72,7.24,2.71.69,1.47,1.89,1.57,3.28,1.16-.36,2.12-1.61,3.34-.61,5.52,1.17,2.57-.28,4.45.52,6.86s-1,4.94-.48,7.48c.34,1.76,1.41,3.21-.15,4.61-1.14,1-.1,3.41-.77,3.79-1.65.93-2.06.79-2.7,2.85-.28.92,1.23,1.25,1.68,1.65s.06,1.7,0,2.09c-.15.94-.91,1.44-1.17,2.31-.2.67.84,3.18,1,3.93l1.15-.46c-.12,2.5.88,3.49-.64,6-1.22,2-2,5.44-4.27,6.51-2.48,1.17-.58,2.75-1,4.67-.57,2.36-2.41,3.73-.57,6.09-1.91-1.39-10.54,11.36-12.13,12.38s-2.27,3.08-2.9,3.07c-1.35-2.8-6.69-1.64-9.38-1.63-2.35,0-4.51-.9-6.69-1.66-5-1.72-6.52-.49-6.79-.82-1.32-1.58-1.49-.8-3-1.63-1.67-.92,0-2.4-.53-3.09-2.4-3.11-11.31-1.12-12.65-4.39s-3.86-6.26-2.77-9.45c1.5-4.39-.66-5.39-5-4.49.79-4.15-.3-5.84-4.14-7-3-.9-7.11-4.3-8.82-7-2.61-4-2.64-9.11-5.76-13-1.36-1.71-5.71-7.7-4.6-10"/><path id="bj" class="cls-1" d="M314.13,369.94c.55-1.25.68-3.14,1.55-4.1s1.08-.75,1.84-1.54c1.57-1.63,4.08-6.22,6.18-4.05.65.67,7.15-.94,8.41-3.15.81-1.42,1.9-3.32,1.87-5,0-1-1.31-3.39.34-3.74,1-.22,2.5.06,3-.61,1.65-2.44,3.75.24,5,1.63.88,1,1.41,1.82,2.27,2.83,1,1.19,2.41,2.37,3.42,3.79.56.79-.68,2.75-.86,3.53-.41,1.79,1.29,3.27,2.17,4.62,1,1.57.2,3.21.87,4.66.8,1.74,1.82,3.06.7,4.93-.59,1-1.89.07-2.28,1.2-.6,1.73,1.82,3-.3,5.34-1,1.07-2.27,1.36-3,2.61a20.14,20.14,0,0,1-1.83,3.5c-1.83,2.27,1,5.38-2.93,6.34-1.31.32-2.09-.27-2.33,1.25s-1,2.76-.91,4.18a82.17,82.17,0,0,1-.12,10.42c-.11,1.53,1.43,4.57,1.18,6.73-.22,1.9-.26,3.57-.55,5.24-.42,2.47.5,3.47.32,4.78-.21,1.47-1.13,3.65-1,4.66a41.83,41.83,0,0,0-5.9.69c-2.43.48-4.88.93-7.33,1.26a3,3,0,0,1,2.06-.8,9.73,9.73,0,0,0-1.57-3.61c-.95-1.63-1.19-4.35-1.46-6.18.25,0,1.55-.4,1.38-3.74-.31-6.08-.05-12.27-.07-18.41,0-3.47-.16-6.11-2.1-9.06-1.83-2.8-1.25-6.05-1.35-9.16-.08-2.44-3.73-3.61-5.54-5.29s-1.25-3.74-1.13-5.72"/><g id="er"><path id="path6816" class="cls-2" d="M787.08,298.88c.09.9,1,3.61-.59,2.29.69,2,4.21,1.84,5.87,1.72-.82-1.76-3.12-.06-3.71-1.86-.23-.7-.26-2.95-1.57-2.15"/><path id="path6830" class="cls-1" d="M744.61,308.75c1.92-1.72,1.81-4.43,2.5-6.71.75-2.48,1.79-4.89,2.68-7.33.82-2.24-1.5-11.54,2.09-12,.71-.1,3.38.44,3.81-.28,1.16-1.94.27-3.42,2.57-4.15,1.85-.59,4-2,5.92-2.8,2.85-1.13,2.95-4.05,5-6a92.52,92.52,0,0,1,7.93,21.75c.42,1.85.39,3.69,1.23,5.44a20.28,20.28,0,0,1,2.16,5.47c.25,1.42,2,1.54,2.42,3s.65,3.76,1.87,4.71c1.53-1.09-1-5.21.62-5.47s2.49,1.71,2.6,2.87c.12,1.36,1.1,3.69,2.4,4.29,1.85.85,3-1.65,4.9.45,1.56,1.74,1.75,3,4.27,3.37,2.91.4,4,2.63,5.56,4.94s2.8,4.49,5.13,6a18.07,18.07,0,0,1,3,2.45c.46.46,2.72,3.54,1.59.76,1.54,1,1.53,3.16,2,4.7.42,1.34,1.91,1,2.78,1.88s4.17,7.09,5.42,4c1.25,1.18,1.87,1.72,1.15,2.58-1.83.86-3.31,2-3.34,3.07-.11,3.54-2.9-1.53-6.05,1,.38-.91-.53-3.73-4-6.08-3-4.56-5-7.71-6.82-8.21-3.29-.88-4.34-4.93-6.31-7.64-2.13-2.94-5.32-3.08-8-5.17-2.54-2-4-.33-6.39-1-1.84-.55-5-2.27-6.86,0,0-1.43-2.91-4.27-2.29-3.28.3.47-2,3-3.77,3.14-1.12.07-3.52.4-4.69-1.36-2.14-3.22-2.84-.59-5.34-4.7a88,88,0,0,1-3.78,10.79c-.77-1.09-2.77-5.18-4.64-4.17-1.17.63-1,1.81-2.68,1.68-4.55-.35-4.46-.54-5.65,2.32a80.58,80.58,0,0,1-1.09-14"/></g><path id="sz" class="cls-1" d="M671.26,886.18h.3a19.5,19.5,0,0,1,2.58,2.78,26.24,26.24,0,0,0,2.31,3.06c1.4,1.39,4.48,3.32,6.91,1.36,1.06-.86.56-.9,1.23-2.2l1.44-2.81h2l0-.82c-2.47-9.84.57-3.18-1.75-9.58a16.52,16.52,0,0,0-4.09-3.4l-3.84-.15c-1.28,1.64-2.28,1.83-3.43,3.56a14.5,14.5,0,0,0-1.22,2.45C673.39,881.11,672.16,885.52,671.26,886.18Z"/><path id="gm" class="cls-1" d="M101.54,333.32c2.26-1.77,1.94-1.67,3.07.82.86,1.89,3.52-.65,4.85.33-2.86-1.47,5.9-2.34,6.43-2.64a16,16,0,0,0-7.07.87c-1.81.79-2.85,1.32-4-.77-1-1.87,1-1.89,2.32-1.8,3.41.26,6.87.09,10.28.09.88,0,.51-2.76,2.53-2.19,1.63.46,3.22-1.53,4.89-.65.85.44,1,1.54,1.88,2s1.56-.39,2.41,0,.61,1.77,1.6,2.19,2.38-.39,3.36-.69c1.16-.35,4-.11,3.77,1.67s-2.8,2.22-4.09,2.41c-5.44.78-11.2-5.49-12-4-.92,1.74-1.14,2.32-4.51,2.27-1.19,0-4.49.7-3.76,2.51.14.35-10.65-.86-11.1,1.7a6.85,6.85,0,0,1-.86-4.19"/><g id="cv"><g id="cv-"><path id="path5762" class="cls-2" d="M1.21,284.42c1.17.1,3.84-1.64,3.27-3.06-.93-2.35-5.14.71-3.27,3.06"/><path id="path5764" class="cls-2" d="M4.54,286.25c3.36-.29-1.26-3,0,0"/><path id="path5766" class="cls-2" d="M10.63,313.46c.88-.33,1.77-2.27.73-2.9-1.81-1.1-2.47,1.91-.73,2.9"/><path id="path5768" class="cls-2" d="M12.46,290.38c.33-2.62,2.75,0,3.56-1.49-1.37-.62-3.16-1.47-4.7-.92a13.25,13.25,0,0,1,1.15,2.41"/><path id="path5770" class="cls-2" d="M21.18,312.19c1.84-2-1.2-4.15-2.07-5.74-.9,2.35-1.39,5.64,2.07,5.74"/><path id="path5772" class="cls-2" d="M25.55,309.21c3.31-3.38-3.25-2.07,0,0"/><path id="path5774" class="cls-2" d="M30.48,297.27c3.25-1.3.43-3-1.15-3.56.07,1.43-1.32,3.58,1.15,3.56"/><path id="path5776" class="cls-2" d="M29.33,288.89a4.3,4.3,0,0,0,.24-3.56c-1.27,1-.25,2.29-.24,3.56"/></g><path id="cv." class="cls-3" d="M13.88,303.86c9.72,0,9.72-14.58,0-14.58s-9.72,14.58,0,14.58"/></g><g id="km"><g id="km-"><path id="path5750" class="cls-2" d="M830.7,682.4c.71-.65.27-1.87,0-2.58-.72-1.8-.26-3.46-.8-5.23-2.2-.07-1.23,2.83-1.73,4.09-.77,2,1.59,2.5,2.54,3.72"/><path id="path5752" class="cls-2" d="M835.3,688.61a2.38,2.38,0,0,0-2.65-1.74c0,1.59,1.51,1.5,2.65,1.74"/><path id="path5754" class="cls-2" d="M843.33,688.48c1.35-3.5-1.33-2.19-3.44-2.76a19.21,19.21,0,0,1,3.44,2.76"/></g><path id="km." class="cls-3" d="M835.12,690.1c9.72,0,9.72-14.58,0-14.58s-9.73,14.58,0,14.58"/></g><g id="mu"><path id="mu-" class="cls-2" d="M995.19,793.64c-.84.88-4.85,6.8-2.05,7.13,4.43.53,5-7.77,2.05-7.13"/><path id="mu." class="cls-3" d="M989.72,802.59c9.72,0,9.72-14.58,0-14.58s-9.73,14.58,0,14.58"/></g><g id="st"><g id="st-"><path id="path2898" class="cls-2" d="M383.24,517.44a5.23,5.23,0,0,0,2.62-2.75c.2-.64.1-2.76-1.1-2.43-2.76.76-1.83,3.2-1.52,5.18"/><path id="path5384" class="cls-2" d="M393.91,496.67a2.31,2.31,0,0,0,.13-2.41,1.4,1.4,0,0,0-.13,2.41"/></g><path id="st." class="cls-3" d="M387.37,512.87c9.84,0,9.84-14.76,0-14.76s-9.85,14.76,0,14.76"/></g><g id="sc"><path id="sc-" class="cls-2" d="M979.81,583.79c.13-1.12-.3-2.51-1.72-2.18a3.29,3.29,0,0,1,1.72,2.18"/><path id="sc." class="cls-3" d="M980.86,582c9.72,0,9.72-14.58,0-14.58s-9.72,14.58,0,14.58"/></g><g id="pt-30"><path id="pt-30-" class="cls-2" d="M113.24,67.46a5.62,5.62,0,0,1-2.91-1.65c-.66-.65.57-1.65,1.25-.93.89.94,2.17-.57,3.2.58s-.23,2.31-1.54,2"/><path id="pt-30_" data-name="pt-30 " class="cls-3" d="M112.68,73.36c9.72,0,9.72-14.58,0-14.58s-9.73,14.58,0,14.58"/></g><g id="es-cn"><g id="es-cn-"><path id="path5984" class="cls-2" d="M96,136.45c-1.72-1.14-.34-2.94,1.37-2.41A8.84,8.84,0,0,1,96,136.45"/><path id="path5986" class="cls-2" d="M99.24,124.17l-1,.69c-.16-1.17-2.31-4.38-.11-4.82,2.46-.49,2,2.9,1.15,4.13"/><path id="path5988" class="cls-2" d="M105.2,131.4c-1.16-.72-1.22-2.88.57-2.53s.72,2.34-.57,2.53"/><path id="path5990" class="cls-2" d="M111.76,131.74c-.94-1.62-1.45-3.44-2.41-5.05a62.35,62.35,0,0,0,9.41-3.21c-1.19,2.56-4.23,7.23-7,8.27"/><path id="path5992" class="cls-2" d="M124.38,135.19c-2.83-.4-3.31-5-.4-5.67,4.5-1,3.13,4.4.4,5.67"/><path id="path5994" class="cls-2" d="M139.42,130.82l-1-.69c3.39-1.13,3.84-6.33,6.29-8.67,1.55-1.48.73,4.32.5,4.9-1,2.68-3.91,2.62-5.76,4.46"/><path id="path5996" class="cls-2" d="M146.55,119.92l-1.15-.46c.48-1,4.18-5.88,5-3.49.72,2-2.89,2.92-3.89,4"/></g><path id="es-cn_" data-name="es-cn " class="cls-3" d="M122.89,119.83c9.72,0,9.72-14.58,0-14.58s-9.72,14.58,0,14.58"/></g><g id="yt"><path id="yt-" class="cls-2" d="M850.55,697c.76-1,1.72-3.22,0-3.91-.43.9-.66,3.06,0,3.91"/><path id="yt." class="cls-3" d="M852.3,705.06c9.72,0,9.72-14.58,0-14.58s-9.73,14.58,0,14.58"/></g><g id="re"><path id="re-" class="cls-2" d="M971.77,807.41c-.17-3.17-6.35-1.29-5.65,1.74,1.06,4.57,9.61,4.94,5.65-1.74"/><path id="re_" data-name="re " class="cls-3" d="M969.77,815c8.67,0,8.67-13.5,0-13.5s-8.68,13.5,0,13.5"/></g><g id="sh"><path id="sh-" class="cls-2" d="M223.83,755a2.31,2.31,0,0,0,.13-2.41,1.4,1.4,0,0,0-.13,2.41"/><path id="sh." class="cls-3" d="M223.72,761.22c9.95,0,9.95-14.93,0-14.93s-10,14.93,0,14.93"/></g></svg>